<svg xmlns="http://www.w3.org/2000/svg" xmlns:xlink="http://www.w3.org/1999/xlink" viewBox="0 0 432 432"><defs><style>.cls-1,.cls-10,.cls-14,.cls-18{fill:none}.cls-5{fill:url(#Super_Soft_Black_Vignette_2)}.cls-6{fill:#f6f7f7}.cls-9{fill:#f27029}.cls-10{stroke:#1c5668;stroke-miterlimit:10;stroke-width:7.12px}.cls-11{fill:gray}.cls-14{stroke:#f6f7f7;stroke-linejoin:bevel;stroke-width:9.5px}.cls-17{mix-blend-mode:multiply}.cls-18{stroke:#bbbdbf;stroke-linecap:round;stroke-linejoin:round;stroke-width:8.48px}</style><clipPath id="clip-path"><path class="cls-1" d="M0 0h432v432H0z"/></clipPath><radialGradient id="Super_Soft_Black_Vignette_2" cx="3367.31" cy="276.22" r="12.55" gradientTransform="matrix(-1 0 0 1 3555.45 0)" gradientUnits="userSpaceOnUse"><stop offset=".57" stop-color="#181614"/><stop offset=".8" stop-color="#181614"/><stop offset="1" stop-color="#181614"/></radialGradient><radialGradient id="Super_Soft_Black_Vignette_2-2" cx="3263.28" cy="273.42" r="12.13" xlink:href="#Super_Soft_Black_Vignette_2"/></defs><g style="isolation:isolate"><g clip-path="url(#clip-path)" id="Layer_1" data-name="Layer 1"><path fill="#fafaf2" d="M-30.03-19.07h505v511.68h-505z"/><path class="cls-5" d="M175.59 276.55a12.55 12.55 0 1 0 12.22-12.88 12.54 12.54 0 0 0-12.22 12.88z"/><path class="cls-6" d="M146.43 286.93a26.78 26.78 0 1 0 26.06-27.48 26.77 26.77 0 0 0-26.06 27.48z"/><path fill="#6e979f" d="M363.02 227.06l-36.51-7.02-241.39 3.53 17.63 5.25 260.27-1.76"/><path fill="#57787c" d="M102.75 228.82l-18.14-5.3 3.49 129.97 16.26 19.75"/><path class="cls-9" d="M96.63 244.36c-12.79 9.29-21.2 26.41-20.79 45.86s9.53 36.18 22.71 44.91z"/><path class="cls-10" d="M298.14 160.54a46.25 46.25 0 0 0-8.88 4.07 38.72 38.72 0 0 0-7 5.34c-15.57 13.89-10.32 35.79-15.36 55.64"/><path class="cls-11" d="M313.81 153.29a12.13 12.13 0 1 1-15.63-7.06 12.11 12.11 0 0 1 15.63 7.06z"/><path class="cls-10" d="M154.06 162a46.25 46.25 0 0 1 8.88 4.07 39.14 39.14 0 0 1 7 5.33c15.57 13.89 10.32 35.79 15.36 55.64"/><path class="cls-11" d="M138.39 154.7a12.13 12.13 0 1 0 15.61-7.06 12.12 12.12 0 0 0-15.61 7.06z"/><path fill="#1c5668" d="M260.54 356.62l-60.16 10.8-15.09 72.47h95.15l-19.9-83.27z"/><path class="cls-9" d="M356.48 242.15c12.63 9.5 20.76 26.76 20 46.19s-10.14 36-23.45 44.54z"/><path fill="#25677c" d="M104.36 373.24l255.61-6.97 3.05-139.21-260.27 1.76 1.61 144.42z"/><path class="cls-6" d="M252.69 284.1a25.91 25.91 0 1 0 25.21-26.59 25.91 25.91 0 0 0-25.21 26.59zM146.43 286.93a26.78 26.78 0 1 0 26.06-27.48 26.77 26.77 0 0 0-26.06 27.48z"/><path class="cls-14" d="M291.41 330.11a143.76 143.76 0 0 1-14.57 5.06"/><path d="M267.41 337.56c-25.51 5.58-51.61 4.37-77.29-.09" stroke-dasharray="31.6 9.72" stroke="#f6f7f7" stroke-linejoin="bevel" stroke-width="9.5" fill="none"/><path class="cls-14" d="M185.35 336.6q-7.59-1.44-15.1-3.2"/><path d="M280 273.74a12.13 12.13 0 1 0 11.8-12.45 12.13 12.13 0 0 0-11.8 12.45z" fill="url(#Super_Soft_Black_Vignette_2-2)"/><path class="cls-1" d="M252.69 284.1a25.91 25.91 0 1 0 25.21-26.59 25.91 25.91 0 0 0-25.21 26.59z"/><path class="cls-5" d="M175.59 276.55a12.55 12.55 0 1 0 12.22-12.88 12.54 12.54 0 0 0-12.22 12.88z"/><path class="cls-1" d="M146.43 286.93a26.78 26.78 0 1 0 26.06-27.48 26.77 26.77 0 0 0-26.06 27.48z"/><g class="cls-17"><path class="cls-18" d="M312.6 137.46q1.74-3.33 3.57-6.6"/><path d="M323.47 118.44C370.6 42.37 446.55-8.55 512.22-71.45c8-8 18-18 13-30-5-12.81-17.05-14-29.37-14.66" stroke-dasharray="14.41 14.41" stroke="#bbbdbf" stroke-linecap="round" stroke-linejoin="round" stroke-width="8.48" fill="none"/></g><g class="cls-17"><path class="cls-18" d="M160.76 138.11q2.12-3.09 4.29-6.15"/><path d="M174 119.54c40-54.27 88.09-103.83 140.07-146.63 14.6-12 29.62-23.57 44.9-34.77s30.83-22 46.55-32.47q21-13.83 42.7-27.12c19-12 37-26 44-47 6.14-20-10.7-28.73-27.91-31.72" stroke-dasharray="15.31 15.31" stroke="#bbbdbf" stroke-linecap="round" stroke-linejoin="round" stroke-width="8.48" fill="none"/></g></g></g></svg>