<?xml version="1.0" encoding="utf-8"?>
<!-- Generator: Adobe Illustrator 27.9.0, SVG Export Plug-In . SVG Version: 6.00 Build 0)  -->
<svg version="1.1" id="Layer_1" xmlns="http://www.w3.org/2000/svg" xmlns:xlink="http://www.w3.org/1999/xlink" x="0px" y="0px"
	 viewBox="0 0 276 229" style="enable-background:new 0 0 276 229;" xml:space="preserve">
<style type="text/css">
	.st0{fill:#A6A6A6;}
	.st1{fill:#808080;}
	.st2{fill:#D5D5D5;}
	.st3{fill:#6E979F;}
	.st4{fill:#F27029;}
	.st5{fill:none;stroke:#1C5668;stroke-width:2.36;stroke-miterlimit:10;}
	.st6{fill:none;stroke:#1C5668;stroke-width:11.8;stroke-linejoin:round;}
	.st7{fill:#1C5668;}
	.st8{fill:#25677C;}
	.st9{fill:#F6F7F7;}
	.st10{fill:url(#SVGID_1_);}
	.st11{fill:url(#SVGID_00000134931555488137754030000008504001374793198263_);}
	.st12{fill:#184E5B;}
	.st13{fill:#0C383E;}
	.st14{clip-path:url(#SVGID_00000096046386517006323410000007648175678004601745_);}
	.st15{fill:#26697D;}
	.st16{fill:#F07328;}
	.st17{fill:none;stroke:#F6F7F7;stroke-width:3.15;stroke-linejoin:bevel;}
	.st18{fill:none;stroke:#F6F7F7;stroke-width:3.15;stroke-linejoin:bevel;stroke-dasharray:10.52,3.24;}
</style>
<path class="st0" d="M228.3,116.6c-1-1.6-1.9-3.3-2.6-5c-2.4-5.9-3.1-12.6-0.7-14.6l6.1,7.4c1.5,1.8,2,2.3,3.7,0.8l2.6-2.2l2.9,3.6
	L228.3,116.6z"/>
<polygon class="st0" points="232.6,115.3 231.4,114.3 232.7,113.3 233.4,114.7 "/>
<polygon class="st0" points="230.2,117.2 229,116.3 230.3,115.2 231,116.6 "/>
<path class="st1" d="M236.3,117.2c1.4,1.7,3.5,2.3,4.6,1.4l6.5-5.3c1.1-0.9,0.9-3.1-0.5-4.8l0,0c-1.4-1.7-3.5-2.3-4.6-1.4l-6.5,5.3
	C234.7,113.3,234.9,115.5,236.3,117.2z"/>
<path class="st0" d="M246.6,113.4c0.2,0.1,0.5,0.1,0.7-0.2c0,0,0,0,0,0l0,0c0.1-0.2,0.1-0.5-0.2-0.7l-6.2-3.7
	c-0.2-0.1-0.5-0.1-0.7,0.2c0,0,0,0,0,0l0,0c-0.1,0.2-0.1,0.5,0.2,0.7c0,0,0,0,0,0L246.6,113.4z"/>
<path class="st0" d="M244.3,115.3c0.2,0.1,0.5,0.1,0.7-0.2l0,0c0.1-0.2,0.1-0.5-0.2-0.7c0,0,0,0,0,0l-6.2-3.7
	c-0.2-0.1-0.5-0.1-0.7,0.2l0,0c-0.1,0.2-0.1,0.5,0.2,0.7L244.3,115.3z"/>
<path class="st0" d="M242,117.1c0.2,0.1,0.5,0.1,0.7-0.2c0,0,0,0,0,0l0,0c0.1-0.2,0.1-0.5-0.2-0.7l-6.2-3.7
	c-0.2-0.1-0.5-0.1-0.7,0.2c0,0,0,0,0,0l0,0c-0.1,0.2-0.1,0.5,0.2,0.7c0,0,0,0,0,0L242,117.1z"/>
<path class="st0" d="M261.5,183.2c2.8-0.8,4.6-3.6,4-6.5L250,120.5c-2.1-8.5,6.6-17.1,2.5-22.1c-9.9-12-18.1-9-18.1-9l6.1,7.4
	c1.5,1.8,1.8,2.4,0.1,3.8l-12.4,10.2c6.1,3.1,10.9,9.9,12.6,14.4l14.2,54.2C255.8,182.2,258.7,183.9,261.5,183.2z M236.5,113.9
	c-1.1-1.3-0.9-3.2,0.4-4.3l2-1.7c1.3-1.1,3.2-0.9,4.3,0.4l3.4,4.1c1.1,1.3,0.9,3.2-0.4,4.3l-2,1.7c-1.3,1.1-3.2,0.9-4.3-0.4
	L236.5,113.9z M256.9,180c-1.4-1.7-1.1-4.2,0.6-5.6c1.7-1.4,4.2-1.1,5.6,0.6c1.4,1.7,1.1,4.2-0.5,5.6
	C260.9,182,258.3,181.7,256.9,180z"/>
<ellipse class="st2" cx="256.7" cy="212.4" rx="11" ry="1.4"/>
<ellipse class="st2" cx="182.9" cy="212.4" rx="59.7" ry="2.8"/>
<polyline class="st3" points="141.9,43.8 156.2,37.1 229,37.1 237.8,44.6 141.9,43.8 "/>
<path class="st4" d="M237.1,49.8c3.9,3.5,6.1,9.4,5.3,15.8s-4.4,11.6-9,14.1L237.1,49.8z"/>
<path class="st5" d="M165.8,20.1c1,0.3,2,0.8,2.9,1.4c0.8,0.5,1.6,1.1,2.3,1.8c5.2,4.6,3.4,11.9,5.1,18.4"/>
<path class="st1" d="M160.6,17.7c-0.8,2.1,0.3,4.4,2.3,5.1s4.4-0.3,5.1-2.3c0.8-2.1-0.3-4.4-2.3-5.1
	C163.7,14.6,161.4,15.6,160.6,17.7C160.6,17.7,160.6,17.7,160.6,17.7z"/>
<path class="st6" d="M253.3,148.1c-15.6,5.5-24.6-11.1-33.4-20.7c-2.3-1.8-4.9-3.1-7.6-3.9"/>
<path class="st1" d="M241.2,145.4c-1.1,5.7,2.6,11.3,8.4,12.5c5.7,1.1,11.3-2.6,12.5-8.4s-2.6-11.3-8.4-12.5
	c-0.9-0.2-1.8-0.2-2.8-0.2C246.1,137.2,242.1,140.7,241.2,145.4z"/>
<path class="st6" d="M144.7,134.6c0.8-0.1,1,0.7,1.8,0.5c-6.6-1.1-14.5-0.3-19.6-5.7c-2.9-2.6-2.3-7.6,0.8-8.2
	c19.6-6.3,40.3,0.7,60-4.6"/>
<polygon class="st7" points="177.9,85.8 197.8,89.4 202.2,110.5 171.9,110.9 "/>
<path class="st7" d="M239.9,192.4c0,7-3.8,12.6-8.4,12.6l-89.8-0.5c-4.6,0-8.3-5.7-8.2-12.7v-1.3c0-7,3.8-12.6,8.4-12.6l89.8,0.5
	c4.6,0,8.3,5.7,8.2,12.7V192.4z"/>
<path class="st1" d="M165.3,203.3c0,5.9-4.7,10.6-10.6,10.6c-5.9,0-10.6-4.7-10.6-10.6c0-5.9,4.7-10.6,10.6-10.6c0,0,0,0,0,0
	C160.5,192.7,165.3,197.4,165.3,203.3z"/>
<path class="st1" d="M229.2,203.3c0,5.9-4.7,10.6-10.6,10.6c-5.9,0-10.6-4.7-10.6-10.6c0-5.9,4.7-10.6,10.6-10.6c0,0,0,0,0,0
	C224.5,192.7,229.2,197.4,229.2,203.3C229.2,203.3,229.2,203.3,229.2,203.3z"/>
<polygon class="st8" points="217.4,104.5 186.4,104.3 155.4,104.1 140.5,174.4 186,174.7 231.4,175 "/>
<path class="st4" d="M142.9,48.8c-4.1,3.3-6.6,9.1-6.1,15.5s3.8,11.8,8.3,14.5L142.9,48.8z"/>
<path class="st5" d="M221.5,26.2c-9.4-3.2-19.6,6.2-18.9,15.4"/>
<path class="st1" d="M218.9,25c-0.8,2.1,0.3,4.4,2.4,5.1c2.1,0.8,4.4-0.3,5.1-2.4c0.8-2.1-0.3-4.3-2.3-5.1
	C222,21.9,219.7,22.9,218.9,25C218.9,25,218.9,25,218.9,25z"/>
<polygon class="st8" points="232.5,90.9 144.9,88.6 141.9,43.8 237.8,44.6 "/>
<path class="st9" d="M180.4,61.8c-0.1,4.7-4.1,8.5-8.8,8.4c-4.7-0.1-8.5-4.1-8.4-8.8c0.1-4.7,4.1-8.5,8.8-8.4c0,0,0,0,0,0
	C176.8,53.1,180.6,57.1,180.4,61.8z"/>
<path class="st9" d="M215.7,62.7c-0.1,4.9-4.2,8.8-9.1,8.6c-4.9-0.1-8.8-4.2-8.6-9.1c0.1-4.9,4.2-8.7,9.1-8.6
	C211.9,53.7,215.8,57.8,215.7,62.7C215.7,62.7,215.7,62.7,215.7,62.7z"/>
<radialGradient id="SVGID_1_" cx="168.36" cy="167.5" r="4.0216" gradientTransform="matrix(1 0 0 -1 0 230)" gradientUnits="userSpaceOnUse">
	<stop  offset="0.57" style="stop-color:#181614"/>
	<stop  offset="0.8" style="stop-color:#181614"/>
	<stop  offset="1" style="stop-color:#181614"/>
</radialGradient>
<path class="st10" d="M172.4,62.6c-0.1,2.2-1.9,3.9-4.1,3.9c-2.2-0.1-3.9-1.9-3.9-4.1c0.1-2.2,1.9-3.9,4.1-3.9
	C170.7,58.5,172.4,60.4,172.4,62.6C172.4,62.6,172.4,62.6,172.4,62.6z"/>
<radialGradient id="SVGID_00000041257647017453008720000007831696518288082362_" cx="203.3012" cy="166.24" r="4.1557" gradientTransform="matrix(1 0 0 -1 0 230)" gradientUnits="userSpaceOnUse">
	<stop  offset="0.57" style="stop-color:#181614"/>
	<stop  offset="0.8" style="stop-color:#181614"/>
	<stop  offset="1" style="stop-color:#181614"/>
</radialGradient>
<path style="fill:url(#SVGID_00000041257647017453008720000007831696518288082362_);" d="M207.5,63.9c-0.1,2.3-2,4.1-4.3,4.1
	c-2.3-0.1-4.1-2-4.1-4.3c0.1-2.3,2-4.1,4.3-4.1c0,0,0,0,0,0C205.7,59.7,207.5,61.6,207.5,63.9z"/>
<polygon class="st3" points="153.1,165.9 154.7,165.9 161.1,109.1 159.2,109.3 "/>
<polygon class="st12" points="154.7,165.9 164.7,160.8 167.6,118.6 161.1,109.1 "/>
<polygon class="st13" points="167.6,118.6 204,118.5 205.2,161.6 164.7,160.8 "/>
<path class="st0" d="M192.6,141.8c0.1,0,0.3,0.1,0.4,0.2c0.1,0.1,0.1,0.3,0.1,0.4c-0.2,1.9-0.9,3.8-1.9,5.4
	c-0.1,0.1-0.2,0.2-0.3,0.3c-0.1,0.1-0.3,0.1-0.4,0l-2.4-0.9c-0.8,1-1.7,1.8-2.8,2.4l0.5,2.5c0,0.1,0,0.3-0.1,0.4
	c-0.1,0.1-0.2,0.2-0.3,0.3c-1.8,0.8-3.7,1.2-5.7,1.1c-0.1,0-0.3-0.1-0.4-0.2c-0.1-0.1-0.2-0.2-0.2-0.4l-0.5-2.5
	c-1.2-0.2-2.4-0.5-3.5-1.1l-1.9,1.7c-0.1,0.1-0.3,0.1-0.4,0.1c-0.1,0-0.3-0.1-0.4-0.1c-1.6-1.1-2.9-2.6-3.8-4.3
	c-0.1-0.1-0.1-0.3-0.1-0.4c0-0.1,0.1-0.3,0.2-0.4l1.9-1.7c-0.5-1.2-0.7-2.4-0.7-3.6l-2.4-0.9c-0.1,0-0.3-0.1-0.4-0.3
	c-0.1-0.1-0.1-0.3-0.1-0.4c0.2-1.9,0.9-3.8,1.9-5.4c0.1-0.1,0.2-0.2,0.3-0.3c0.1-0.1,0.3-0.1,0.4,0l2.4,0.9c0.8-1,1.7-1.8,2.8-2.4
	l-0.5-2.5c0-0.1,0-0.3,0-0.4c0.1-0.1,0.2-0.2,0.3-0.3c1.8-0.8,3.7-1.2,5.7-1.1c0.1,0,0.3,0.1,0.4,0.2c0.1,0.1,0.2,0.2,0.2,0.4
	l0.5,2.5c1.2,0.2,2.4,0.6,3.5,1.2l1.9-1.7c0.1-0.1,0.3-0.1,0.4-0.1c0.1,0,0.3,0.1,0.4,0.1c1.6,1.1,2.9,2.6,3.8,4.3
	c0.1,0.1,0.1,0.3,0.1,0.4c0,0.1-0.1,0.3-0.2,0.4l-1.9,1.7c0.5,1.2,0.7,2.4,0.7,3.6L192.6,141.8z M182.3,137.6
	c-1.9-1.3-4.6-0.7-5.8,1.2c-1.3,1.9-0.7,4.6,1.2,5.8c1.9,1.3,4.6,0.7,5.8-1.2c0.6-0.9,0.8-2.1,0.6-3.2
	C183.9,139.1,183.2,138.2,182.3,137.6L182.3,137.6z"/>
<g>
	<defs>
		<polygon id="SVGID_00000104686487870140584700000012116376527203081656_" points="167.6,118.6 204,118.5 205.2,161.6 164.7,160.8 
					"/>
	</defs>
	<clipPath id="SVGID_00000070112743579169910380000018237509452615445940_">
		<use xlink:href="#SVGID_00000104686487870140584700000012116376527203081656_"  style="overflow:visible;"/>
	</clipPath>
	<g style="clip-path:url(#SVGID_00000070112743579169910380000018237509452615445940_);">
		<path class="st0" d="M203,160.4c0.1,0.1,0.1,0.2,0.2,0.3c0,0.1,0,0.2,0,0.3c-0.7,1.3-1.7,2.4-2.9,3.2c-0.1,0.1-0.2,0.1-0.3,0.1
			c-0.1,0-0.2,0-0.3-0.1l-1.4-1.3c-0.8,0.4-1.7,0.7-2.7,0.9l-0.4,1.9c0,0.1-0.1,0.2-0.2,0.3c-0.1,0.1-0.2,0.1-0.3,0.1
			c-1.5,0-2.9-0.3-4.3-0.9c-0.1,0-0.2-0.1-0.2-0.2c0-0.1,0-0.2,0-0.3l0.4-1.9c-0.8-0.5-1.5-1.1-2.1-1.9l-1.9,0.6c-0.1,0-0.2,0-0.3,0
			c-0.1,0-0.2-0.1-0.2-0.2c-0.8-1.3-1.2-2.7-1.4-4.1c0-0.1,0-0.2,0.1-0.3c0.1-0.1,0.2-0.2,0.3-0.2l1.9-0.6c0-0.9,0.2-1.9,0.6-2.7
			l-1.5-1.4c-0.1-0.1-0.1-0.2-0.2-0.3c0-0.1,0-0.2,0.1-0.3c0.7-1.3,1.7-2.4,2.9-3.2c0.1-0.1,0.2-0.1,0.3-0.1c0.1,0,0.2,0,0.3,0.1
			l1.4,1.3c0.8-0.4,1.7-0.7,2.7-0.9l0.4-1.9c0-0.1,0.1-0.2,0.2-0.3c0.1-0.1,0.2-0.1,0.3-0.1c1.5,0,2.9,0.3,4.3,0.9
			c0.1,0,0.2,0.1,0.2,0.2c0,0.1,0,0.2,0,0.3l-0.4,1.9c0.8,0.5,1.5,1.1,2.1,1.9l1.9-0.6c0.1,0,0.2,0,0.3,0c0.1,0.1,0.2,0.1,0.2,0.2
			c0.8,1.3,1.2,2.7,1.4,4.1c0,0.1,0,0.2-0.1,0.3c-0.1,0.1-0.2,0.2-0.3,0.2l-1.9,0.6c0,0.9-0.2,1.9-0.6,2.7L203,160.4z M197.2,154.4
			c-0.9-1.5-2.9-1.9-4.4-1c0,0,0,0,0,0c-1.5,0.9-1.9,2.9-1,4.4c0,0,0,0,0,0c0.9,1.5,2.9,1.9,4.4,1c0,0,0,0,0,0
			C197.7,157.9,198.1,156,197.2,154.4C197.2,154.5,197.2,154.4,197.2,154.4z"/>
	</g>
</g>
<path class="st1" d="M152,143.6c-5.7,1.5-11.5-1.8-13-7.5c-1.5-5.7,1.8-11.5,7.5-13c5.7-1.5,11.5,1.8,13,7.5
	c0.2,0.9,0.4,1.8,0.4,2.7C159.8,138.1,156.6,142.3,152,143.6z"/>
<path class="st15" d="M19.3,171.5v0.8h92.3c2.4,0,4.3-1.5,4.3-3.4V86.5c0-1.9-1.9-3.4-4.3-3.4l0,0h-1.3c-0.6,0-1.2-0.2-1.6-0.5
	c-0.6-0.5-0.8-1.2-0.5-1.8l5.9-13.1l-29.6,14c-1.9,0.9-4,1.4-6.2,1.4h-59c-2.4,0-4.3,1.5-4.3,3.4c0,0,0,0,0,0v82.4
	c0,1.9,1.9,3.4,4.3,3.4v-1.6c-1.2,0-2.2-0.8-2.2-1.7V86.5c0-1,1-1.7,2.2-1.7h59c2.6,0,5.1-0.5,7.3-1.6l24.5-11.6l-3.9,8.7
	c-0.8,1.8,0.4,3.7,2.6,4.3c0.4,0.1,0.9,0.2,1.4,0.2h1.3c1.2,0,2.2,0.8,2.2,1.7c0,0,0,0,0,0v82.4c0,1-1,1.7-2.2,1.7c0,0,0,0,0,0H19.3
	V171.5z"/>
<path class="st16" d="M47.2,96.4v26.3H44c-0.4,0-0.8-0.1-1.2-0.2c-0.4-0.2-0.7-0.5-1-0.8L29.5,106c0,0.5,0.1,0.9,0.1,1.4
	s0,0.8,0,1.2v14.1h-5.4V96.4h3.2c0.2,0,0.4,0,0.7,0c0.2,0,0.3,0.1,0.5,0.1c0.2,0.1,0.3,0.2,0.4,0.3c0.2,0.2,0.3,0.3,0.5,0.5
	L42,113.1c-0.1-0.5-0.1-1-0.1-1.5c0-0.5,0-0.9,0-1.3V96.4H47.2z"/>
<path class="st16" d="M55.2,114.3c0,1.3,0.6,2.5,1.4,3.4c0.8,0.7,1.9,1.1,3,1.1c0.6,0,1.1-0.1,1.7-0.2c0.4-0.1,0.8-0.3,1.2-0.5
	l1-0.5c0.3-0.2,0.7-0.2,1-0.2c0.4,0,0.8,0.2,1,0.5l1.6,2c-0.5,0.6-1.2,1.2-1.9,1.6c-0.6,0.4-1.3,0.7-2.1,1c-0.7,0.2-1.4,0.4-2.1,0.5
	c-0.7,0.1-1.3,0.1-2,0.1c-1.3,0-2.5-0.2-3.7-0.6c-1.1-0.4-2.1-1.1-3-1.9c-0.9-0.9-1.6-2-2-3.1c-0.5-1.4-0.8-2.9-0.8-4.4
	c0-1.2,0.2-2.4,0.6-3.6c0.4-1.1,0.9-2.1,1.7-3c0.8-0.9,1.8-1.5,2.9-2c2.3-0.9,4.9-1,7.2-0.2c1,0.4,1.9,0.9,2.7,1.7
	c0.8,0.8,1.4,1.7,1.7,2.7c0.4,1.2,0.6,2.4,0.6,3.6c0,0.3,0,0.7,0,1c0,0.2-0.1,0.4-0.2,0.6c-0.1,0.2-0.2,0.3-0.4,0.3
	c-0.2,0.1-0.4,0.1-0.6,0.1L55.2,114.3z M62.2,111.1c0-0.4-0.1-0.9-0.2-1.3c-0.1-0.4-0.3-0.8-0.6-1.1c-0.3-0.3-0.6-0.6-1-0.8
	c-0.5-0.2-1-0.3-1.5-0.3c-0.9-0.1-1.8,0.3-2.5,0.9c-0.7,0.7-1.1,1.6-1.2,2.6H62.2z"/>
<path class="st16" d="M73.5,114.3c0.1,1.3,0.6,2.5,1.4,3.4c0.8,0.7,1.9,1.1,3,1.1c0.6,0,1.1-0.1,1.7-0.2c0.4-0.2,0.8-0.3,1.2-0.6
	l1-0.5c0.3-0.2,0.7-0.2,1-0.2c0.4,0,0.8,0.2,1,0.5l1.6,2c-0.5,0.6-1.2,1.2-1.9,1.6c-0.6,0.4-1.3,0.7-2.1,1c-0.7,0.2-1.4,0.4-2.1,0.5
	c-0.7,0.1-1.3,0.1-2,0.1c-1.3,0-2.5-0.2-3.7-0.6c-1.1-0.4-2.1-1.1-3-1.9c-0.9-0.9-1.6-2-2-3.1c-0.5-1.4-0.8-2.9-0.8-4.4
	c0-1.2,0.2-2.4,0.6-3.6c0.4-1.1,1-2.1,1.8-2.9c0.8-0.9,1.8-1.5,2.9-2c1.2-0.5,2.5-0.8,3.8-0.7c1.2,0,2.3,0.2,3.4,0.6
	c2,0.7,3.6,2.3,4.4,4.4c0.4,1.2,0.6,2.4,0.6,3.6c0,0.3,0,0.7-0.1,1c0,0.2-0.1,0.4-0.2,0.6c-0.1,0.2-0.2,0.3-0.4,0.3
	c-0.2,0.1-0.4,0.1-0.6,0.1L73.5,114.3z M80.5,111.1c0-0.4-0.1-0.9-0.2-1.3c-0.1-0.4-0.3-0.8-0.6-1.1c-0.3-0.3-0.6-0.6-1-0.8
	c-0.5-0.2-1-0.3-1.5-0.3c-0.9-0.1-1.8,0.3-2.5,0.9c-0.7,0.7-1.1,1.6-1.2,2.6H80.5z"/>
<path class="st16" d="M104.2,95.7v27h-3.5c-0.6,0.1-1.2-0.3-1.4-0.9l-0.4-1.4c-0.4,0.4-0.8,0.7-1.2,1.1c-0.4,0.3-0.8,0.6-1.3,0.8
	c-0.5,0.2-1,0.4-1.5,0.5c-0.6,0.1-1.2,0.2-1.8,0.2c-0.9,0-1.9-0.2-2.7-0.7c-0.9-0.4-1.6-1.1-2.2-1.9c-0.6-0.9-1.1-1.9-1.4-3
	c-0.4-1.3-0.5-2.6-0.5-4c0-1.3,0.2-2.6,0.6-3.9c0.3-1.1,0.9-2.2,1.6-3.1c0.7-0.9,1.6-1.6,2.5-2.1c1-0.5,2.1-0.8,3.3-0.7
	c0.8,0,1.7,0.1,2.5,0.4c0.7,0.3,1.3,0.7,1.8,1.1v-9.5H104.2z M98.6,109c-0.4-0.4-0.8-0.8-1.4-1c-0.5-0.2-1-0.3-1.6-0.3
	c-0.5,0-1,0.1-1.4,0.3c-0.5,0.2-0.8,0.6-1.1,1c-0.4,0.5-0.6,1.1-0.7,1.8c-0.2,0.9-0.3,1.7-0.3,2.6c0,0.8,0.1,1.7,0.2,2.5
	c0.1,0.6,0.3,1.1,0.6,1.6c0.2,0.4,0.5,0.7,0.9,0.9c0.4,0.2,0.8,0.3,1.2,0.3c0.4,0,0.7,0,1.1-0.1c0.3-0.1,0.6-0.2,0.9-0.3
	c0.3-0.2,0.5-0.3,0.8-0.6c0.3-0.2,0.5-0.5,0.7-0.8V109z"/>
<path class="st16" d="M47.2,129.8v26.3h-6.1V145H30.4v11.1h-6.1v-26.3h6.1v11h10.7v-11H47.2z"/>
<path class="st16" d="M55.2,147.7c0,1.3,0.6,2.5,1.4,3.4c0.8,0.7,1.9,1.1,3,1.1c0.6,0,1.1-0.1,1.7-0.2c0.4-0.1,0.8-0.3,1.2-0.5
	l1-0.5c0.3-0.2,0.7-0.2,1-0.2c0.4,0,0.8,0.2,1,0.5l1.6,2c-0.5,0.6-1.2,1.2-1.9,1.6c-0.6,0.4-1.3,0.8-2.1,1c-0.7,0.2-1.4,0.4-2.1,0.5
	c-0.7,0.1-1.3,0.1-2,0.1c-1.3,0-2.5-0.2-3.7-0.6c-1.1-0.4-2.1-1.1-3-1.9c-0.9-0.9-1.6-2-2-3.1c-0.5-1.4-0.8-2.9-0.8-4.4
	c0-1.2,0.2-2.4,0.6-3.6c0.8-2.2,2.5-4,4.7-4.9c1.2-0.5,2.5-0.8,3.8-0.7c1.2,0,2.3,0.2,3.4,0.6c1,0.4,1.9,0.9,2.7,1.7
	c0.8,0.8,1.3,1.7,1.7,2.7c0.4,1.2,0.6,2.4,0.5,3.6c0,0.3,0,0.7,0,1c0,0.2-0.1,0.4-0.2,0.6c-0.1,0.1-0.2,0.3-0.4,0.3
	c-0.2,0.1-0.4,0.1-0.6,0.1L55.2,147.7z M62.2,144.5c0-0.4-0.1-0.9-0.2-1.3c-0.1-0.4-0.3-0.8-0.6-1.1c-0.3-0.3-0.6-0.6-1-0.8
	c-0.5-0.2-1-0.3-1.5-0.3c-0.9,0-1.8,0.3-2.5,0.9c-0.7,0.7-1.1,1.7-1.2,2.6H62.2z"/>
<path class="st16" d="M74.6,129.1v27H69v-27H74.6z"/>
<path class="st16" d="M82.4,139.7c0.7-0.8,1.6-1.4,2.5-1.9c1-0.5,2.2-0.8,3.3-0.8c1,0,1.9,0.2,2.8,0.6c0.9,0.4,1.6,1.1,2.2,1.9
	c0.6,0.9,1.1,1.9,1.4,3c0.4,1.3,0.5,2.6,0.5,4c0,1.3-0.2,2.6-0.6,3.9c-0.4,1.1-0.9,2.2-1.6,3.1c-0.7,0.9-1.6,1.6-2.6,2.1
	c-1,0.5-2.1,0.8-3.2,0.7c-0.8,0-1.7-0.1-2.5-0.4c-0.7-0.3-1.3-0.7-1.8-1.1v7.2h-5.6v-24.6h3.5c0.6-0.1,1.2,0.3,1.4,0.9L82.4,139.7z
	 M82.8,151c0.4,0.4,0.8,0.8,1.4,1c0.5,0.2,1,0.3,1.6,0.3c0.5,0,1-0.1,1.4-0.3c0.5-0.2,0.8-0.6,1.1-1c0.4-0.5,0.6-1.1,0.7-1.8
	c0.2-0.9,0.3-1.7,0.3-2.6c0-0.8-0.1-1.7-0.2-2.5c-0.1-0.6-0.3-1.1-0.6-1.6c-0.2-0.4-0.5-0.7-0.9-0.9c-0.4-0.2-0.8-0.3-1.2-0.3
	c-0.7,0-1.4,0.1-2,0.5c-0.6,0.3-1.1,0.8-1.5,1.3L82.8,151z"/>
<path class="st16" d="M94.2,132.2c0.5-0.4,1-0.7,1.5-1.1c0.5-0.3,1.1-0.6,1.7-0.9c0.6-0.3,1.3-0.4,1.9-0.6c0.7-0.1,1.5-0.2,2.2-0.2
	c1,0,2.1,0.1,3.1,0.4c0.9,0.3,1.6,0.7,2.3,1.3c0.6,0.6,1.1,1.2,1.5,2c0.3,0.8,0.5,1.7,0.5,2.6c0,0.8-0.1,1.6-0.4,2.4
	c-0.2,0.6-0.6,1.2-1,1.7c-0.4,0.5-0.8,0.9-1.3,1.3l-1.3,1c-0.4,0.3-0.7,0.6-1.1,0.9c-0.3,0.3-0.5,0.6-0.6,1l-0.5,2.5H99l-0.4-2.9
	c-0.1-0.5,0-1.1,0.2-1.5c0.2-0.4,0.5-0.9,0.9-1.2c0.4-0.4,0.8-0.7,1.3-1c0.5-0.3,0.9-0.6,1.3-1c0.4-0.4,0.7-0.8,1-1.2
	c0.3-0.5,0.4-1.1,0.4-1.6c0-0.7-0.2-1.3-0.7-1.7c-0.6-0.5-1.3-0.7-2-0.6c-0.5,0-1.1,0.1-1.6,0.2c-0.4,0.1-0.7,0.3-1.1,0.4l-0.8,0.4
	c-0.6,0.4-1.4,0.2-1.8-0.4c0,0,0,0,0-0.1L94.2,132.2z M97.5,153.3c0-0.4,0.1-0.8,0.2-1.2c0.2-0.4,0.4-0.7,0.7-1
	c0.3-0.3,0.6-0.5,1-0.7c0.8-0.3,1.7-0.3,2.5,0c0.4,0.2,0.7,0.4,1,0.7c0.3,0.3,0.5,0.6,0.7,1c0.2,0.4,0.2,0.8,0.2,1.2
	c0,0.4-0.1,0.8-0.2,1.2c-0.2,0.4-0.4,0.7-0.7,1c-0.3,0.3-0.6,0.5-1,0.6c-0.8,0.3-1.7,0.3-2.5,0c-0.4-0.2-0.7-0.4-1-0.6
	c-0.3-0.3-0.5-0.6-0.7-1C97.6,154.1,97.5,153.7,97.5,153.3z"/>
<path class="st17" d="M168.2,78.9c1.6,0.6,3.2,1.1,4.9,1.6"/>
<path class="st18" d="M176.2,81.2c8.5,1.7,17.3,1.6,25.8-0.2"/>
<path class="st17" d="M203.5,80.6c1.7-0.4,3.3-0.9,4.9-1.4"/>
</svg>
