<svg xmlns="http://www.w3.org/2000/svg" xmlns:xlink="http://www.w3.org/1999/xlink" viewBox="0 0 276 229"><defs><style>.cls-1,.cls-20,.cls-21,.cls-8,.cls-9{fill:none;}.cls-2{isolation:isolate;}.cls-3{fill:#a6a6a6;}.cls-4{fill:gray;}.cls-5{fill:#d5d5d5;mix-blend-mode:multiply;}.cls-6{fill:#6e979f;}.cls-7{fill:#f27029;}.cls-8,.cls-9{stroke:#1c5668;}.cls-8{stroke-miterlimit:10;stroke-width:2.36px;}.cls-9{stroke-linejoin:round;stroke-width:11.8px;}.cls-10{fill:#1c5668;}.cls-11{fill:#25677c;}.cls-12{fill:#f6f7f7;}.cls-13{fill:url(#Super_Soft_Black_Vignette_2);}.cls-14{fill:url(#Super_Soft_Black_Vignette_2-2);}.cls-15{fill:#184e5b;}.cls-16{fill:#0c383e;}.cls-17{clip-path:url(#clip-path);}.cls-18{fill:#26697d;}.cls-19{fill:#f07328;}.cls-20,.cls-21{stroke:#f6f7f7;stroke-linejoin:bevel;stroke-width:3.15px;}.cls-21{stroke-dasharray:10.52 3.24;}</style><radialGradient id="Super_Soft_Black_Vignette_2" cx="168.36" cy="62.5" r="4.02" gradientUnits="userSpaceOnUse"><stop offset="0.57" stop-color="#181614"/><stop offset="0.8" stop-color="#181614"/><stop offset="1" stop-color="#181614"/></radialGradient><radialGradient id="Super_Soft_Black_Vignette_2-2" cx="203.3" cy="63.76" r="4.16" xlink:href="#Super_Soft_Black_Vignette_2"/><clipPath id="clip-path"><polygon class="cls-1" points="167.6 118.59 204 118.51 205.21 161.57 164.69 160.82 167.6 118.59"/></clipPath></defs><title>robot-chat-help</title><g class="cls-2"><g id="Layer_1" data-name="Layer 1"><path class="cls-3" d="M228.34,116.6a31.19,31.19,0,0,1-2.65-5C223.24,105.73,222.6,99,225,97l6.1,7.44c1.49,1.81,2,2.26,3.72.84l2.61-2.15,2.93,3.56Z"/><polygon class="cls-3" points="232.61 115.3 231.39 114.33 232.66 113.28 233.38 114.68 232.61 115.3"/><polygon class="cls-3" points="230.24 117.25 229.02 116.27 230.29 115.23 231.01 116.62 230.24 117.25"/><path class="cls-4" d="M236.28,117.2c1.4,1.71,3.46,2.33,4.6,1.4l6.5-5.33c1.14-.94.93-3.08-.47-4.79h0c-1.41-1.71-3.47-2.33-4.61-1.4l-6.49,5.33c-1.14.94-.93,3.08.47,4.79Z"/><path class="cls-3" d="M246.57,113.37a.49.49,0,0,0,.68-.17h0a.5.5,0,0,0-.17-.68l-6.19-3.72a.49.49,0,0,0-.68.17h0a.49.49,0,0,0,.17.68Z"/><path class="cls-3" d="M244.27,115.26a.5.5,0,0,0,.68-.17h0a.49.49,0,0,0-.17-.68l-6.19-3.73a.5.5,0,0,0-.68.17h0a.5.5,0,0,0,.17.68Z"/><path class="cls-3" d="M242,117.14a.49.49,0,0,0,.68-.17h0a.5.5,0,0,0-.17-.68l-6.19-3.72a.49.49,0,0,0-.68.17h0a.49.49,0,0,0,.17.68Z"/><path class="cls-3" d="M261.48,183.16a5.57,5.57,0,0,0,4-6.46L250,120.46c-2.14-8.47,6.59-17.1,2.46-22.12-9.89-12-18.07-9-18.07-9l6.1,7.44c1.49,1.81,1.83,2.39.1,3.81l-12.44,10.2c6.13,3.14,10.89,9.9,12.55,14.44l14.22,54.23A5.49,5.49,0,0,0,261.48,183.16Zm-25-69.26a3.06,3.06,0,0,1,.42-4.3l2-1.65a3.06,3.06,0,0,1,4.3.42l3.39,4.13a3.06,3.06,0,0,1-.42,4.3l-2,1.65a3.06,3.06,0,0,1-4.3-.42ZM256.91,180a4,4,0,1,1,5.7.56A4.07,4.07,0,0,1,256.91,180Z"/><ellipse class="cls-5" cx="256.73" cy="212.42" rx="10.99" ry="1.43"/><ellipse class="cls-5" cx="182.88" cy="212.42" rx="59.68" ry="2.75"/><polyline class="cls-6" points="141.9 43.84 156.24 37.14 229.02 37.14 237.84 44.57 141.9 43.84"/><path class="cls-7" d="M237.13,49.76c3.91,3.49,6.11,9.41,5.33,15.81s-4.35,11.62-9,14.06Z"/><path class="cls-8" d="M165.77,20.08a15.32,15.32,0,0,1,2.94,1.35A13.51,13.51,0,0,1,171,23.2c5.16,4.6,3.42,11.86,5.09,18.44"/><path class="cls-4" d="M160.58,17.68a4,4,0,1,0,5.17-2.34A4,4,0,0,0,160.58,17.68Z"/><path class="cls-9" d="M253.26,148.13c-15.62,5.52-24.59-11.13-33.41-20.71a21.72,21.72,0,0,0-7.65-3.87"/><path class="cls-4" d="M241.19,145.4a10.61,10.61,0,1,0,9.7-8.54A10.61,10.61,0,0,0,241.19,145.4Z"/><path class="cls-9" d="M144.68,134.59c.82-.12,1,.66,1.75.5-6.64-1.07-14.51-.29-19.61-5.69-2.93-2.62-2.32-7.55.76-8.17,19.59-6.35,40.28.72,60-4.64"/><polygon class="cls-10" points="177.85 85.84 197.78 89.41 202.18 110.51 171.86 110.87 177.85 85.84"/><path class="cls-10" d="M239.92,192.44c0,7-3.8,12.65-8.39,12.63l-89.84-.53c-4.6,0-8.29-5.73-8.25-12.73v-1.27c0-7,3.8-12.65,8.4-12.62l89.84.53c4.59,0,8.28,5.72,8.24,12.72Z"/><path class="cls-4" d="M165.27,203.28a10.61,10.61,0,1,1-10.61-10.6A10.61,10.61,0,0,1,165.27,203.28Z"/><path class="cls-4" d="M229.25,203.28a10.61,10.61,0,1,1-10.6-10.6A10.6,10.6,0,0,1,229.25,203.28Z"/><polygon class="cls-11" points="217.43 104.46 186.39 104.28 155.35 104.1 140.52 174.44 185.97 174.71 231.43 174.98 217.43 104.46"/><path class="cls-7" d="M142.89,48.76c-4.08,3.29-6.58,9.1-6.11,15.53s3.76,11.81,8.27,14.48Z"/><path class="cls-8" d="M221.5,26.25c-9.38-3.24-19.61,6.2-18.95,15.39"/><path class="cls-4" d="M218.91,25a4,4,0,1,0,5.18-2.34A4,4,0,0,0,218.91,25Z"/><polygon class="cls-11" points="232.53 90.93 144.93 88.6 141.9 43.84 237.84 44.57 232.53 90.93"/><path class="cls-12" d="M180.45,61.8A8.59,8.59,0,1,1,172.09,53,8.59,8.59,0,0,1,180.45,61.8Z"/><path class="cls-12" d="M215.66,62.74A8.87,8.87,0,1,1,207,53.63,8.87,8.87,0,0,1,215.66,62.74Z"/><path class="cls-13" d="M172.38,62.61a4,4,0,1,1-3.91-4.13A4,4,0,0,1,172.38,62.61Z"/><path class="cls-14" d="M207.46,63.87a4.16,4.16,0,1,1-4.05-4.26A4.16,4.16,0,0,1,207.46,63.87Z"/><polygon class="cls-6" points="153.14 165.89 154.74 165.89 161.1 109.1 159.25 109.32 153.14 165.89"/><polygon class="cls-15" points="154.74 165.89 164.69 160.82 167.6 118.59 161.1 109.1 154.74 165.89"/><polygon class="cls-16" points="167.6 118.59 204 118.51 205.21 161.57 164.69 160.82 167.6 118.59"/><path class="cls-3" d="M192.56,141.79a.56.56,0,0,1,.35.25.69.69,0,0,1,.11.41,13.12,13.12,0,0,1-1.87,5.45.79.79,0,0,1-.32.28.63.63,0,0,1-.43,0l-2.44-.86a9.94,9.94,0,0,1-2.79,2.45l.51,2.54a.68.68,0,0,1-.05.42.61.61,0,0,1-.29.3,13.51,13.51,0,0,1-5.71,1.15.58.58,0,0,1-.38-.17.67.67,0,0,1-.21-.36l-.51-2.54A10.16,10.16,0,0,1,175,150l-1.91,1.73a.59.59,0,0,1-.41.14.82.82,0,0,1-.4-.13,13.14,13.14,0,0,1-3.83-4.3.62.62,0,0,1-.06-.42.55.55,0,0,1,.22-.37l1.92-1.74a10.67,10.67,0,0,1-.73-3.63l-2.44-.85a.62.62,0,0,1-.35-.26.67.67,0,0,1-.11-.41,13.08,13.08,0,0,1,1.87-5.44.72.72,0,0,1,.32-.28.58.58,0,0,1,.43,0l2.44.86a10.1,10.1,0,0,1,2.79-2.45l-.51-2.54a.72.72,0,0,1,0-.41.67.67,0,0,1,.29-.31,13.5,13.5,0,0,1,5.71-1.14.57.57,0,0,1,.38.16.73.73,0,0,1,.21.37l.51,2.54a10.14,10.14,0,0,1,3.53,1.17l1.91-1.73a.64.64,0,0,1,.41-.14.84.84,0,0,1,.4.14,13.09,13.09,0,0,1,3.84,4.3.67.67,0,0,1,.05.42.57.57,0,0,1-.22.37l-1.92,1.73a10.77,10.77,0,0,1,.73,3.63Zm-10.26-4.22a4.21,4.21,0,1,0,1.81,2.68A4.06,4.06,0,0,0,182.3,137.57Z"/><g class="cls-17"><path class="cls-3" d="M203,160.44a.42.42,0,0,1,.16.28.48.48,0,0,1,0,.31,9.89,9.89,0,0,1-2.94,3.2.67.67,0,0,1-.31.1.48.48,0,0,1-.3-.11l-1.43-1.33a7.73,7.73,0,0,1-2.67.85l-.42,1.91a.48.48,0,0,1-.16.27.5.5,0,0,1-.29.12,10.08,10.08,0,0,1-4.29-.94.45.45,0,0,1-.22-.23.55.55,0,0,1,0-.31l.42-1.91a7.64,7.64,0,0,1-2.08-1.88l-1.85.61a.43.43,0,0,1-.32,0,.54.54,0,0,1-.24-.21,9.83,9.83,0,0,1-1.35-4.13.59.59,0,0,1,.09-.31.42.42,0,0,1,.26-.19l1.85-.62a8.31,8.31,0,0,1,.6-2.73L186,151.83a.42.42,0,0,1-.16-.28.47.47,0,0,1,.05-.31,9.89,9.89,0,0,1,2.94-3.2.57.57,0,0,1,.31-.1.43.43,0,0,1,.3.11l1.43,1.33a7.73,7.73,0,0,1,2.67-.85l.42-1.91a.48.48,0,0,1,.16-.27.45.45,0,0,1,.29-.12,10.08,10.08,0,0,1,4.29.94.37.37,0,0,1,.21.23.48.48,0,0,1,0,.31l-.42,1.91a7.64,7.64,0,0,1,2.08,1.88l1.85-.61a.49.49,0,0,1,.32,0,.64.64,0,0,1,.24.22,9.83,9.83,0,0,1,1.35,4.13.59.59,0,0,1-.09.31.46.46,0,0,1-.26.19l-1.85.61a8.2,8.2,0,0,1-.6,2.73Zm-5.82-6a3.19,3.19,0,0,0-4.4-1,3.18,3.18,0,0,0-1,4.41,3.19,3.19,0,0,0,4.4,1,3.18,3.18,0,0,0,1-4.41Z"/></g><path class="cls-4" d="M152,143.55a10.61,10.61,0,1,1,7.83-10.28A10.61,10.61,0,0,1,152,143.55Z"/><path class="cls-18" d="M19.29,199.72v1h92.3a4.29,4.29,0,0,0,4.29-4.29V91.61a4.29,4.29,0,0,0-4.29-4.29h-1.34a2.14,2.14,0,0,1-1.57-.66,2.17,2.17,0,0,1-.5-2.27l5.9-16.63L84.53,85.59a12.09,12.09,0,0,1-6.23,1.73h-59A4.29,4.29,0,0,0,15,91.61V196.47a4.29,4.29,0,0,0,4.29,4.29v-2.09a2.21,2.21,0,0,1-2.2-2.2V91.61a2.2,2.2,0,0,1,2.2-2.19h59a14.17,14.17,0,0,0,7.31-2l24.54-14.81-3.94,11.12a4.29,4.29,0,0,0,4,5.73h1.34a2.19,2.19,0,0,1,2.19,2.19V196.47a2.19,2.19,0,0,1-2.19,2.2H19.29Z"/><path class="cls-19" d="M47.23,96.4v26.28H44.05a2.76,2.76,0,0,1-1.18-.22,2.91,2.91,0,0,1-.95-.79L29.53,106c0,.47.08.93.1,1.37s0,.85,0,1.23v14.09H24.28V96.4h3.21a6.32,6.32,0,0,1,.67,0,1.69,1.69,0,0,1,.48.14,1.4,1.4,0,0,1,.42.28,5.6,5.6,0,0,1,.45.48L42,113.12q-.09-.75-.12-1.47c0-.47,0-.92,0-1.34V96.4Z"/><path class="cls-19" d="M55.15,114.33a5.27,5.27,0,0,0,1.42,3.4,4.28,4.28,0,0,0,3,1.06,5.23,5.23,0,0,0,1.68-.24,8.73,8.73,0,0,0,1.25-.52l1-.53a2.2,2.2,0,0,1,1-.23,1.15,1.15,0,0,1,1,.49l1.62,2a8.49,8.49,0,0,1-1.86,1.62,10.4,10.4,0,0,1-2.06,1,11.69,11.69,0,0,1-2.11.49,16,16,0,0,1-2,.13,10.41,10.41,0,0,1-3.69-.64,8.56,8.56,0,0,1-3-1.9,8.83,8.83,0,0,1-2-3.14,11.73,11.73,0,0,1-.75-4.37,9.8,9.8,0,0,1,.64-3.55A8.61,8.61,0,0,1,52,106.43a9,9,0,0,1,2.9-2,10.32,10.32,0,0,1,7.25-.16,7.54,7.54,0,0,1,2.66,1.68,7.65,7.65,0,0,1,1.73,2.7,10,10,0,0,1,.62,3.61,9.15,9.15,0,0,1,0,1,1.73,1.73,0,0,1-.2.63.78.78,0,0,1-.39.33,1.81,1.81,0,0,1-.62.09Zm7-3.25a4.74,4.74,0,0,0-.18-1.3,3,3,0,0,0-.56-1.12,2.83,2.83,0,0,0-1-.81,3.62,3.62,0,0,0-1.54-.3,3.33,3.33,0,0,0-2.49.91,4.71,4.71,0,0,0-1.19,2.62Z"/><path class="cls-19" d="M73.46,114.33a5.32,5.32,0,0,0,1.43,3.4,4.26,4.26,0,0,0,3,1.06,5.13,5.13,0,0,0,1.67-.24A9.39,9.39,0,0,0,80.8,118l1-.53a2.19,2.19,0,0,1,1-.23,1.13,1.13,0,0,1,1,.49l1.63,2a8.53,8.53,0,0,1-1.87,1.62,10.15,10.15,0,0,1-2.06,1,11.31,11.31,0,0,1-2.11.49,15.74,15.74,0,0,1-2,.13,10.45,10.45,0,0,1-3.69-.64,8.52,8.52,0,0,1-3-1.9,9,9,0,0,1-2-3.14,11.73,11.73,0,0,1-.75-4.37,9.8,9.8,0,0,1,.64-3.55,8.76,8.76,0,0,1,1.84-2.94,8.9,8.9,0,0,1,2.91-2,9.61,9.61,0,0,1,3.85-.74,9.74,9.74,0,0,1,3.4.58,7.33,7.33,0,0,1,4.38,4.38,9.76,9.76,0,0,1,.63,3.61,7,7,0,0,1-.06,1,1.42,1.42,0,0,1-.2.63.72.72,0,0,1-.38.33,1.87,1.87,0,0,1-.63.09Zm7-3.25a5.15,5.15,0,0,0-.17-1.3,3.19,3.19,0,0,0-.56-1.12,3,3,0,0,0-1-.81,3.54,3.54,0,0,0-1.53-.3,3.33,3.33,0,0,0-2.49.91,4.71,4.71,0,0,0-1.19,2.62Z"/><path class="cls-19" d="M104.16,95.67v27H100.7a1.3,1.3,0,0,1-1.37-.94l-.43-1.42a10.77,10.77,0,0,1-1.18,1.08,7,7,0,0,1-1.32.84,6.53,6.53,0,0,1-1.54.54,7.63,7.63,0,0,1-1.77.19,5.8,5.8,0,0,1-2.71-.65,6.26,6.26,0,0,1-2.15-1.87,9.43,9.43,0,0,1-1.41-3,14.27,14.27,0,0,1-.52-4,12.53,12.53,0,0,1,.58-3.89,9.54,9.54,0,0,1,1.63-3.1,7.74,7.74,0,0,1,2.54-2.05,7.2,7.2,0,0,1,3.26-.74,6.35,6.35,0,0,1,2.46.42,6.47,6.47,0,0,1,1.8,1.12V95.67ZM98.57,109a3.46,3.46,0,0,0-1.37-1,4.26,4.26,0,0,0-1.55-.28,3.39,3.39,0,0,0-1.43.3,3,3,0,0,0-1.13,1,5.33,5.33,0,0,0-.74,1.76,10.9,10.9,0,0,0-.27,2.61,12.43,12.43,0,0,0,.21,2.49,5.2,5.2,0,0,0,.61,1.63,2.23,2.23,0,0,0,.93.9,2.65,2.65,0,0,0,1.2.27,4.72,4.72,0,0,0,1.11-.12,4.35,4.35,0,0,0,.92-.33,4.43,4.43,0,0,0,.78-.55,7.74,7.74,0,0,0,.73-.77Z"/><path class="cls-19" d="M43.17,134.61h-7.4v21.46h-6.1V134.61h-7.4v-4.83h20.9Z"/><path class="cls-19" d="M46.11,147.71a5.25,5.25,0,0,0,1.43,3.4,4.21,4.21,0,0,0,3,1.06,5.23,5.23,0,0,0,1.68-.24,7.71,7.71,0,0,0,1.25-.52l1-.52a2.08,2.08,0,0,1,1-.24,1.18,1.18,0,0,1,1,.49l1.62,2a8.49,8.49,0,0,1-1.86,1.62,9.87,9.87,0,0,1-2.06,1,10.73,10.73,0,0,1-2.11.49,15.74,15.74,0,0,1-2,.13,10.45,10.45,0,0,1-3.69-.64,8.38,8.38,0,0,1-3-1.9,9,9,0,0,1-2-3.14,11.73,11.73,0,0,1-.75-4.37,9.8,9.8,0,0,1,.64-3.55A8.61,8.61,0,0,1,43,139.81a8.79,8.79,0,0,1,2.9-2,10.35,10.35,0,0,1,7.26-.16,7.43,7.43,0,0,1,2.65,1.67,7.83,7.83,0,0,1,1.73,2.7,10,10,0,0,1,.62,3.62,9.42,9.42,0,0,1,0,1,1.67,1.67,0,0,1-.2.63.81.81,0,0,1-.39.32,1.81,1.81,0,0,1-.62.09Zm7-3.25a5.07,5.07,0,0,0-.17-1.29,3.42,3.42,0,0,0-.56-1.13,2.82,2.82,0,0,0-1-.8,3.44,3.44,0,0,0-1.54-.31,3.33,3.33,0,0,0-2.49.91,4.81,4.81,0,0,0-1.19,2.62Z"/><path class="cls-19" d="M73.57,141.79a3.21,3.21,0,0,1-.48.49,1.09,1.09,0,0,1-.67.18,1.36,1.36,0,0,1-.75-.2l-.75-.44a5.86,5.86,0,0,0-1-.44,4.3,4.3,0,0,0-1.39-.2,3.93,3.93,0,0,0-1.78.38,3.3,3.3,0,0,0-1.24,1.08,5.15,5.15,0,0,0-.72,1.73,10.59,10.59,0,0,0-.23,2.3,7,7,0,0,0,1,4.13,3.32,3.32,0,0,0,2.86,1.44A4.07,4.07,0,0,0,70,152a5.3,5.3,0,0,0,1-.54l.73-.55a1.38,1.38,0,0,1,.84-.26,1.16,1.16,0,0,1,1,.49l1.63,2a8.81,8.81,0,0,1-3.78,2.59,9.82,9.82,0,0,1-2,.49,14.92,14.92,0,0,1-2,.13,8.52,8.52,0,0,1-3.28-.64,8.21,8.21,0,0,1-2.74-1.89,8.92,8.92,0,0,1-1.87-3,11.21,11.21,0,0,1-.7-4.11,11.35,11.35,0,0,1,.61-3.78,8.44,8.44,0,0,1,1.78-3,8.28,8.28,0,0,1,2.92-2,10.18,10.18,0,0,1,4-.74,9.85,9.85,0,0,1,3.86.7,9.37,9.37,0,0,1,3,2.06Z"/><path class="cls-19" d="M81.66,139a9.05,9.05,0,0,1,2.19-1.4,6.92,6.92,0,0,1,2.82-.53,6.63,6.63,0,0,1,2.72.53,5.67,5.67,0,0,1,2,1.48,6.45,6.45,0,0,1,1.23,2.25,9.3,9.3,0,0,1,.42,2.85v11.89h-5.6V144.18A3.27,3.27,0,0,0,86.8,142a2.27,2.27,0,0,0-1.86-.77,3.87,3.87,0,0,0-1.72.39,6.89,6.89,0,0,0-1.56,1.05v13.36H76.07v-27h5.59Z"/><path class="cls-19" d="M47.23,163.16v26.29H41.09V178.33H30.41v11.12H24.28V163.16h6.13v11H41.09v-11Z"/><path class="cls-19" d="M55.15,181.09a5.3,5.3,0,0,0,1.42,3.41,4.27,4.27,0,0,0,3,1.05,5.54,5.54,0,0,0,1.68-.23,7.7,7.7,0,0,0,1.25-.53l1-.52a2.07,2.07,0,0,1,1-.23,1.17,1.17,0,0,1,1,.48l1.62,2a8.18,8.18,0,0,1-1.86,1.61,9.39,9.39,0,0,1-2.06,1,10.9,10.9,0,0,1-2.11.49,16.07,16.07,0,0,1-2,.14,10.64,10.64,0,0,1-3.69-.64,8.44,8.44,0,0,1-3-1.91,8.83,8.83,0,0,1-2-3.14,11.68,11.68,0,0,1-.75-4.36,9.86,9.86,0,0,1,.64-3.56,8.63,8.63,0,0,1,4.74-4.94,9.65,9.65,0,0,1,3.85-.74,9.48,9.48,0,0,1,3.4.58,7.27,7.27,0,0,1,2.66,1.68,7.7,7.7,0,0,1,1.73,2.69A10,10,0,0,1,67.2,179a9.42,9.42,0,0,1,0,1,1.87,1.87,0,0,1-.2.63.76.76,0,0,1-.39.32,1.59,1.59,0,0,1-.62.09Zm7-3.24a4.69,4.69,0,0,0-.18-1.3,3.07,3.07,0,0,0-.56-1.13,2.7,2.7,0,0,0-1-.8,3.47,3.47,0,0,0-1.54-.31,3.37,3.37,0,0,0-2.49.91,4.77,4.77,0,0,0-1.19,2.63Z"/><path class="cls-19" d="M74.55,162.44v27H69v-27Z"/><path class="cls-19" d="M82.43,173.05a9.53,9.53,0,0,1,2.5-1.92,6.93,6.93,0,0,1,3.32-.75A5.68,5.68,0,0,1,91,171a6.26,6.26,0,0,1,2.15,1.87,9.43,9.43,0,0,1,1.41,3,14.22,14.22,0,0,1,.52,4,12.46,12.46,0,0,1-.59,3.9,9.86,9.86,0,0,1-1.64,3.1A7.61,7.61,0,0,1,90.28,189a7.16,7.16,0,0,1-3.25.74,6.35,6.35,0,0,1-2.46-.42,6.47,6.47,0,0,1-1.8-1.12v7.18H77.18V170.74h3.46a1.3,1.3,0,0,1,1.37.94Zm.34,11.31a3.64,3.64,0,0,0,1.37,1,4.07,4.07,0,0,0,1.55.29,3.36,3.36,0,0,0,1.43-.3,3,3,0,0,0,1.13-1,5.33,5.33,0,0,0,.74-1.76,11,11,0,0,0,.27-2.63,12.43,12.43,0,0,0-.21-2.49,5.2,5.2,0,0,0-.61-1.63,2.29,2.29,0,0,0-.93-.9,2.65,2.65,0,0,0-1.2-.27,3.92,3.92,0,0,0-2,.46,5.51,5.51,0,0,0-1.52,1.31Z"/><path class="cls-19" d="M94.2,165.56a13.63,13.63,0,0,1,1.46-1.05,11,11,0,0,1,1.68-.85,10.44,10.44,0,0,1,1.94-.58,11.32,11.32,0,0,1,2.25-.21,9.74,9.74,0,0,1,3.06.45,6.61,6.61,0,0,1,2.32,1.29,5.91,5.91,0,0,1,1.47,2,6.6,6.6,0,0,1,.51,2.63,6.77,6.77,0,0,1-.38,2.37,6.57,6.57,0,0,1-1,1.74,7,7,0,0,1-1.28,1.28l-1.31,1a9.53,9.53,0,0,0-1.09.91,2,2,0,0,0-.58,1l-.51,2.52H99l-.4-2.9a2.44,2.44,0,0,1,.18-1.54,4.46,4.46,0,0,1,.89-1.2,11.18,11.18,0,0,1,1.28-1,12.05,12.05,0,0,0,1.31-1,5.76,5.76,0,0,0,1-1.23,3,3,0,0,0,.42-1.62,2.18,2.18,0,0,0-.71-1.72,2.81,2.81,0,0,0-2-.64,5.5,5.5,0,0,0-1.59.2,6.13,6.13,0,0,0-1.1.44l-.81.44a1.31,1.31,0,0,1-1.84-.47Zm3.32,21.06a3,3,0,0,1,.25-1.21,2.9,2.9,0,0,1,.67-1,3.35,3.35,0,0,1,1-.66,3.38,3.38,0,0,1,2.5,0,3.4,3.4,0,0,1,1,.66,2.93,2.93,0,0,1,.68,1,3,3,0,0,1,.24,1.21,3,3,0,0,1-.24,1.21,3,3,0,0,1-.68,1,3.19,3.19,0,0,1-1,.65,3.51,3.51,0,0,1-2.5,0,3.14,3.14,0,0,1-1-.65,2.94,2.94,0,0,1-.67-1A3,3,0,0,1,97.52,186.62Z"/><path class="cls-20" d="M168.23,78.91a51.07,51.07,0,0,0,4.87,1.57"/><path class="cls-21" d="M176.24,81.24A62.52,62.52,0,0,0,202,81"/><path class="cls-20" d="M203.53,80.64q2.5-.6,4.93-1.36"/></g></g></svg>