<?xml version="1.0" encoding="UTF-8"?>
<svg id="Layer_1" data-name="Layer 1" xmlns="http://www.w3.org/2000/svg" viewBox="0 0 660.57 158.29">
  <defs>
    <style>
      .cls-1, .cls-2, .cls-3 {
        stroke-width: 0px;
      }

      .cls-4 {
        stroke-width: 1.04px;
      }

      .cls-4, .cls-3 {
        fill: #231f20;
      }

      .cls-4, .cls-5, .cls-6, .cls-7 {
        stroke: #231f20;
      }

      .cls-8 {
        stroke-linecap: round;
      }

      .cls-8, .cls-2, .cls-9, .cls-5, .cls-7, .cls-10 {
        fill: #fff;
      }

      .cls-8, .cls-10 {
        stroke: #000;
        stroke-width: 1.84px;
      }

      .cls-9 {
        stroke: #fff;
        stroke-width: .4px;
      }

      .cls-5 {
        stroke-width: 1.99px;
      }

      .cls-6 {
        fill: #a32035;
        stroke-width: 1.99px;
      }

      .cls-7 {
        stroke-width: .99px;
      }
    </style>
  </defs>
  <g>
    <g>
      <path class="cls-3" d="m162.73,78.62c1.15-3.17,1.53-3.74,2.11-3.74s.96.48,2.11,3.45c1.44,3.64,16.49,43.25,22.34,57.82,3.45,8.53,6.23,10.07,8.25,10.64,1.44.48,2.88.58,3.84.58.58,0,.96.1.96.58,0,.57-.86.77-1.92.77-1.44,0-8.44,0-15.05-.19-1.82-.09-2.88-.09-2.88-.67,0-.38.29-.58.67-.67.58-.19,1.15-1.05.58-2.59l-8.92-23.59c-.19-.38-.38-.58-.86-.58h-20.62c-.48,0-.77.29-.96.77l-5.75,16.97c-.86,2.4-1.34,4.7-1.34,6.43,0,1.92,2.01,2.78,3.64,2.78h.96c.67,0,.96.19.96.58,0,.57-.58.77-1.44.77-2.3,0-6.42-.29-7.48-.29s-6.33.29-10.83.29c-1.25,0-1.82-.19-1.82-.77,0-.38.38-.58.86-.58.67,0,2.01-.1,2.78-.19,4.41-.58,6.33-4.22,8.05-9.01l21.77-59.54Zm9.97,38.35c.48,0,.48-.29.38-.67l-9.11-25.89c-.48-1.44-.96-1.44-1.44,0l-8.44,25.89c-.19.48,0,.67.29.67h18.31Z"/>
      <path class="cls-3" d="m213.06,104.03c0-14.96,0-17.64-.19-20.71-.19-3.26-.96-4.79-4.12-5.47-.77-.19-2.4-.29-3.26-.29-.38,0-.77-.19-.77-.58,0-.58.48-.77,1.53-.77,4.31,0,10.36.29,10.83.29,1.05,0,8.34-.29,11.31-.29,6.04,0,12.46.58,17.55,4.22,2.4,1.73,6.62,6.42,6.62,13.04,0,7.1-2.97,14.19-11.6,22.15,7.86,10.07,14.38,18.6,19.94,24.55,5.18,5.47,9.3,6.52,11.7,6.91,1.82.29,3.17.29,3.74.29.48,0,.86.29.86.58,0,.57-.58.77-2.3.77h-6.81c-5.37,0-7.77-.48-10.26-1.82-4.12-2.21-7.48-6.9-12.94-14.09-4.03-5.27-8.53-11.7-10.45-14.19-.38-.38-.67-.58-1.25-.58l-11.79-.19c-.48,0-.67.29-.67.77v2.3c0,9.2,0,16.78.48,20.81.29,2.78.86,4.89,3.74,5.27,1.34.19,3.45.38,4.32.38.58,0,.77.29.77.58,0,.48-.48.77-1.53.77-5.27,0-11.31-.29-11.79-.29-.1,0-6.14.29-9.01.29-1.05,0-1.53-.19-1.53-.77,0-.29.19-.58.77-.58.86,0,2.01-.19,2.88-.38,1.92-.38,2.4-2.49,2.78-5.27.48-4.03.48-11.6.48-20.81v-16.87Zm7.67,8.34c0,.48.19.86.67,1.15,1.44.86,5.85,1.53,10.07,1.53,2.3,0,4.99-.29,7.19-1.82,3.36-2.3,5.85-7.48,5.85-14.77,0-11.99-6.33-19.18-16.59-19.18-2.88,0-5.47.29-6.42.58-.48.19-.77.58-.77,1.15v31.35Z"/>
      <path class="cls-3" d="m284.65,104.03c0-14.96,0-17.64-.18-20.71-.18-3.26-.91-4.79-3.92-5.47-.73-.19-2.28-.29-3.1-.29-.36,0-.73-.19-.73-.58,0-.58.46-.77,1.46-.77,4.1,0,9.47.29,10.02.29.82,0,6.1-.29,8.84-.29,1,0,1.46.19,1.46.77,0,.38-.36.58-.73.58-.64,0-1.18.1-2.28.29-2.46.48-3.19,2.11-3.37,5.47-.18,3.07-.18,5.75-.18,20.71v5.75h.36c1.55-1.82,18.04-19.47,21.32-23.2,2.55-2.78,4.92-5.27,4.92-6.9,0-1.15-.46-1.73-1.18-2.01-.46-.19-.82-.38-.82-.77,0-.48.46-.67,1.09-.67,1.82,0,4.65.29,6.83.29.46,0,6.47-.29,8.75-.29,1,0,1.37.19,1.37.67s-.18.67-.91.67c-1.37,0-3.28.48-5.1,1.34-3.74,1.73-5.74,4.12-9.84,8.25-2.28,2.3-18.13,18.6-20.04,21,2.37,2.78,15.84,23.4,19.58,27.04,7.65,7.48,9.2,9.01,13.57,10.93,2.37,1.05,5.01,1.25,5.65,1.25s1.18.19,1.18.58c0,.48-.46.77-2,.77h-4.65c-2.55,0-4.28,0-6.28-.19-4.83-.48-7.11-2.59-11.02-5.85-4.1-3.55-17.94-25.51-22.31-31.16h-.46v9.4c0,9.2,0,16.78.46,20.81.27,2.78.82,4.89,3.55,5.27,1.28.19,2.73.38,3.55.38.55,0,.73.29.73.58,0,.48-.46.77-1.46.77-4.46,0-9.75-.29-10.48-.29s-6.01.29-8.74.29c-1,0-1.46-.19-1.46-.77,0-.29.18-.58.73-.58.82,0,1.91-.19,2.73-.38,1.82-.38,2.28-2.49,2.64-5.27.46-4.03.46-11.6.46-20.81v-16.87Z"/>
      <path class="cls-3" d="m373.79,78.62c1.15-3.17,1.54-3.74,2.11-3.74s.96.48,2.11,3.45c1.44,3.64,16.49,43.25,22.34,57.82,3.45,8.53,6.23,10.07,8.25,10.64,1.44.48,2.88.58,3.84.58.58,0,.96.1.96.58,0,.57-.86.77-1.92.77-1.44,0-8.44,0-15.05-.19-1.82-.09-2.88-.09-2.88-.67,0-.38.29-.58.67-.67.58-.19,1.15-1.05.58-2.59l-8.92-23.59c-.19-.38-.38-.58-.86-.58h-20.62c-.48,0-.77.29-.96.77l-5.75,16.97c-.86,2.4-1.34,4.7-1.34,6.43,0,1.92,2.01,2.78,3.64,2.78h.96c.67,0,.96.19.96.58,0,.57-.57.77-1.44.77-2.3,0-6.42-.29-7.48-.29s-6.33.29-10.84.29c-1.25,0-1.82-.19-1.82-.77,0-.38.38-.58.86-.58.67,0,2.01-.1,2.78-.19,4.41-.58,6.33-4.22,8.05-9.01l21.76-59.54Zm9.97,38.35c.48,0,.48-.29.38-.67l-9.11-25.89c-.48-1.44-.96-1.44-1.44,0l-8.44,25.89c-.19.48,0,.67.29.67h18.31Z"/>
      <path class="cls-3" d="m498.45,147.46c-1.34-.67-1.44-1.06-1.44-3.64,0-4.79.38-8.63.48-10.16.1-1.05.29-1.53.77-1.53.58,0,.67.29.67,1.06,0,.86,0,2.2.29,3.55,1.44,7.09,7.77,9.78,14.19,9.78,9.21,0,13.71-6.62,13.71-12.75,0-6.62-2.78-10.45-11.03-17.26l-4.31-3.55c-10.16-8.34-12.47-14.29-12.47-20.81,0-10.26,7.67-17.26,19.85-17.26,3.74,0,6.52.38,8.92.96,1.82.38,2.59.48,3.35.48s.96.19.96.67-.38,3.64-.38,10.16c0,1.53-.19,2.21-.67,2.21-.57,0-.67-.48-.77-1.25-.1-1.15-.67-3.74-1.25-4.79-.58-1.06-3.16-5.08-11.99-5.08-6.62,0-11.79,4.12-11.79,11.12,0,5.46,2.49,8.92,11.7,16.11l2.68,2.11c11.32,8.92,14,14.86,14,22.53,0,3.93-1.53,11.22-8.15,15.92-4.12,2.88-9.3,4.03-14.48,4.03-4.51,0-8.92-.67-12.85-2.59Z"/>
      <path class="cls-3" d="m570.27,78.62c1.15-3.17,1.53-3.74,2.11-3.74s.96.48,2.11,3.45c1.44,3.64,16.49,43.25,22.34,57.82,3.45,8.53,6.23,10.07,8.25,10.64,1.44.48,2.88.58,3.84.58.57,0,.96.1.96.58,0,.57-.86.77-1.92.77-1.44,0-8.44,0-15.05-.19-1.82-.09-2.88-.09-2.88-.67,0-.38.29-.58.67-.67.58-.19,1.15-1.05.58-2.59l-8.92-23.59c-.19-.38-.38-.58-.86-.58h-20.61c-.48,0-.77.29-.96.77l-5.75,16.97c-.86,2.4-1.34,4.7-1.34,6.43,0,1.92,2.01,2.78,3.64,2.78h.96c.67,0,.96.19.96.58,0,.57-.58.77-1.44.77-2.3,0-6.42-.29-7.48-.29s-6.33.29-10.83.29c-1.25,0-1.82-.19-1.82-.77,0-.38.38-.58.86-.58.67,0,2.01-.1,2.78-.19,4.41-.58,6.33-4.22,8.05-9.01l21.77-59.54Zm9.97,38.35c.48,0,.48-.29.38-.67l-9.11-25.89c-.48-1.44-.96-1.44-1.44,0l-8.44,25.89c-.19.48,0,.67.29.67h18.32Z"/>
      <path class="cls-3" d="m616.55,147.46c-1.34-.67-1.44-1.06-1.44-3.64,0-4.79.38-8.63.48-10.16.1-1.05.29-1.53.77-1.53.57,0,.67.29.67,1.06,0,.86,0,2.2.29,3.55,1.44,7.09,7.77,9.78,14.19,9.78,9.21,0,13.71-6.62,13.71-12.75,0-6.62-2.78-10.45-11.03-17.26l-4.31-3.55c-10.16-8.34-12.46-14.29-12.46-20.81,0-10.26,7.67-17.26,19.85-17.26,3.74,0,6.52.38,8.92.96,1.82.38,2.59.48,3.36.48s.96.19.96.67-.38,3.64-.38,10.16c0,1.53-.19,2.21-.67,2.21-.58,0-.67-.48-.77-1.25-.1-1.15-.67-3.74-1.25-4.79-.58-1.06-3.16-5.08-11.99-5.08-6.62,0-11.79,4.12-11.79,11.12,0,5.46,2.49,8.92,11.7,16.11l2.68,2.11c11.32,8.92,14,14.86,14,22.53,0,3.93-1.53,11.22-8.15,15.92-4.12,2.88-9.3,4.03-14.48,4.03-4.51,0-8.92-.67-12.85-2.59Z"/>
      <path class="cls-3" d="m428.15,135.66c.17,7.86,1.04,10.36,3.36,11.12,1.64.48,3.54.57,4.32.57.43,0,.69.19.69.58,0,.58-.52.77-1.55.77-4.92,0-8.37-.29-9.15-.29s-4.4.29-8.28.29c-.86,0-1.38-.1-1.38-.77,0-.38.26-.58.69-.58.69,0,2.24-.1,3.54-.57,2.16-.67,2.59-3.45,2.59-12.18l.09-54.94c0-3.74.26-4.79.95-4.79s2.16,2.11,3.02,3.07c1.29,1.63,14.15,17.07,27.44,32.89,8.54,10.16,17.95,21.86,20.71,25.03l-.95-48.71c-.09-6.23-.69-8.34-3.36-9.11-1.55-.38-3.54-.48-4.23-.48-.6,0-.69-.29-.69-.67,0-.58.69-.67,1.73-.67,3.88,0,8.03.29,8.97.29s3.8-.29,7.33-.29c.95,0,1.55.1,1.55.67,0,.38-.35.67-.95.67-.43,0-1.04,0-2.07.29-2.85.67-3.19,2.78-3.19,8.53l-.17,56.19c0,6.33-.17,6.81-.78,6.81-.69,0-1.73-1.05-6.3-6.14-.95-.96-13.37-15.05-22.52-25.99-10.01-11.98-19.76-24.07-22.52-27.52l1.12,45.93Z"/>
    </g>
    <g>
      <path class="cls-3" d="m149.45,42.71c0-7.42,0-8.75-.1-10.27-.1-1.62-.48-2.38-2.04-2.71-.38-.1-1.19-.14-1.62-.14-.19,0-.38-.09-.38-.29,0-.28.24-.38.76-.38,2.14,0,5.04.14,5.47.14s3.28-.14,4.71-.14c.52,0,.76.1.76.38,0,.19-.19.29-.38.29-.33,0-.62.05-1.19.14-1.28.19-1.66,1.05-1.76,2.71-.09,1.52-.09,2.85-.09,10.27v6.66c0,6.85,1.52,9.79,3.57,11.74,2.33,2.19,4.47,2.62,7.18,2.62,2.9,0,5.75-1.38,7.46-3.42,2.19-2.71,2.76-6.75,2.76-11.65v-5.94c0-7.42,0-8.75-.09-10.27-.1-1.62-.48-2.38-2.05-2.71-.38-.1-1.19-.14-1.62-.14-.19,0-.38-.09-.38-.29,0-.28.24-.38.76-.38,2.14,0,4.75.14,5.04.14.33,0,2.57-.14,3.99-.14.52,0,.76.1.76.38,0,.19-.19.29-.38.29-.33,0-.62.05-1.19.14-1.28.29-1.66,1.05-1.76,2.71-.1,1.52-.1,2.85-.1,10.27v5.09c0,5.13-.57,10.84-4.37,14.22-3.42,3.04-6.99,3.52-9.79,3.52-1.62,0-6.42-.19-9.79-3.37-2.33-2.24-4.14-5.56-4.14-12.5v-6.94Z"/>
      <path class="cls-3" d="m203.17,58.4c.1,3.9.57,5.14,1.86,5.52.9.24,1.95.29,2.38.29.24,0,.38.09.38.29,0,.28-.29.38-.86.38-2.71,0-4.61-.14-5.04-.14s-2.42.14-4.56.14c-.48,0-.76-.05-.76-.38,0-.19.14-.29.38-.29.38,0,1.24-.05,1.95-.29,1.19-.33,1.43-1.71,1.43-6.04l.05-27.24c0-1.85.14-2.38.52-2.38s1.19,1.05,1.66,1.52c.71.81,7.8,8.46,15.12,16.31,4.71,5.04,9.89,10.84,11.41,12.41l-.52-24.15c-.05-3.09-.38-4.14-1.85-4.52-.86-.19-1.95-.24-2.33-.24-.33,0-.38-.14-.38-.33,0-.29.38-.33.95-.33,2.14,0,4.42.14,4.94.14s2.09-.14,4.04-.14c.52,0,.86.05.86.33,0,.19-.19.33-.52.33-.24,0-.57,0-1.14.14-1.57.33-1.76,1.38-1.76,4.23l-.09,27.86c0,3.14-.1,3.38-.43,3.38-.38,0-.95-.52-3.47-3.04-.52-.48-7.37-7.46-12.41-12.88-5.52-5.94-10.89-11.93-12.41-13.65l.62,22.77Z"/>
      <path class="cls-3" d="m261.12,51.08c0,4.56,0,8.32.24,10.32.14,1.38.43,2.43,1.85,2.62.67.09,1.71.19,2.14.19.29,0,.38.14.38.29,0,.24-.24.38-.76.38-2.62,0-5.61-.14-5.85-.14s-3.23.14-4.66.14c-.52,0-.76-.1-.76-.38,0-.14.09-.29.38-.29.43,0,1-.1,1.43-.19.95-.19,1.19-1.24,1.38-2.62.24-2,.24-5.75.24-10.32v-8.37c0-7.42,0-8.75-.1-10.27-.1-1.62-.57-2.42-1.62-2.66-.52-.14-1.14-.19-1.47-.19-.19,0-.38-.09-.38-.29,0-.28.24-.38.76-.38,1.57,0,4.56.14,4.8.14s3.23-.14,4.66-.14c.52,0,.76.1.76.38,0,.19-.19.29-.38.29-.33,0-.62.05-1.19.14-1.28.24-1.66,1.05-1.76,2.71-.1,1.52-.1,2.85-.1,10.27v8.37Z"/>
      <path class="cls-3" d="m298.58,59.07c2.76-6.37,9.13-22.96,10.17-26.39.24-.71.43-1.38.43-1.81,0-.38-.14-.86-.62-1.09-.57-.19-1.28-.19-1.81-.19-.29,0-.52-.05-.52-.29,0-.28.28-.38,1.05-.38,1.9,0,4.09.14,4.66.14.29,0,2.33-.14,3.71-.14.52,0,.81.1.81.33s-.19.33-.57.33c-.33,0-1.38,0-2.28.57-.62.43-1.33,1.24-2.61,4.47-.52,1.33-2.9,7.04-5.33,12.89-2.9,6.94-5.04,12.08-6.13,14.41-1.33,2.85-1.52,3.61-2,3.61-.57,0-.81-.66-1.71-2.95l-11.65-29.15c-1.05-2.66-1.76-3.18-3.42-3.66-.71-.19-1.52-.19-1.81-.19s-.38-.14-.38-.33c0-.29.48-.33,1.24-.33,2.28,0,4.99.14,5.56.14.47,0,2.61-.14,4.42-.14.86,0,1.28.1,1.28.33s-.14.33-.48.33c-.52,0-1.38.05-1.81.24-.52.24-.62.62-.62.95,0,.62.57,2.09,1.28,3.95l9.13,24.34Z"/>
      <path class="cls-3" d="m333.76,42.71c0-7.42,0-8.75-.09-10.27-.1-1.62-.48-2.38-2.05-2.71-.38-.1-1.19-.14-1.62-.14-.19,0-.38-.09-.38-.29,0-.28.24-.38.76-.38,1.09,0,2.38,0,3.42.05l1.95.1c.33,0,9.79,0,10.89-.05.9-.05,1.66-.14,2.04-.24.24-.05.43-.24.67-.24.14,0,.19.19.19.43,0,.33-.24.9-.38,2.23-.05.48-.14,2.57-.24,3.14-.05.24-.14.52-.33.52-.29,0-.38-.24-.38-.62,0-.33-.05-1.14-.29-1.71-.33-.76-.81-1.33-3.38-1.62-.81-.1-5.99-.14-6.52-.14-.19,0-.28.14-.28.47v13.12c0,.33.05.48.28.48.62,0,6.47,0,7.56-.09,1.14-.1,1.81-.19,2.24-.67.33-.38.52-.62.71-.62.14,0,.24.09.24.38s-.24,1.09-.38,2.66c-.09.95-.19,2.71-.19,3.05,0,.38,0,.9-.33.9-.24,0-.33-.19-.33-.43,0-.47,0-.95-.19-1.57-.19-.67-.62-1.47-2.47-1.66-1.28-.14-5.99-.24-6.8-.24-.24,0-.33.14-.33.33v4.18c0,1.62-.05,7.13,0,8.13.14,3.28.86,3.9,5.52,3.9,1.24,0,3.33,0,4.56-.52,1.24-.52,1.81-1.47,2.14-3.42.09-.52.19-.71.43-.71.29,0,.29.38.29.71,0,.38-.38,3.61-.62,4.61-.33,1.23-.71,1.23-2.57,1.23-3.57,0-6.18-.09-8.03-.14-1.85-.1-3-.14-3.71-.14-.09,0-.9,0-1.9.05-.95,0-2.04.1-2.76.1-.52,0-.76-.1-.76-.38,0-.14.1-.29.38-.29.43,0,1-.1,1.43-.19.95-.19,1.19-1.24,1.38-2.62.24-2,.24-5.75.24-10.32v-8.37Z"/>
      <path class="cls-3" d="m372.98,42.71c0-7.42,0-8.75-.1-10.27-.09-1.62-.48-2.38-2.04-2.71-.38-.1-1.19-.14-1.62-.14-.19,0-.38-.09-.38-.29,0-.28.24-.38.76-.38,2.14,0,5.14.14,5.37.14.52,0,4.14-.14,5.61-.14,3,0,6.18.29,8.7,2.09,1.19.86,3.28,3.19,3.28,6.47,0,3.52-1.48,7.04-5.75,10.98,3.9,4.99,7.13,9.22,9.89,12.17,2.57,2.71,4.61,3.23,5.8,3.42.9.14,1.57.14,1.85.14.24,0,.43.14.43.29,0,.28-.29.38-1.14.38h-3.38c-2.66,0-3.85-.24-5.09-.9-2.04-1.09-3.71-3.42-6.42-6.99-2-2.62-4.23-5.8-5.18-7.04-.19-.19-.33-.29-.62-.29l-5.85-.09c-.24,0-.33.14-.33.38v1.14c0,4.56,0,8.32.24,10.32.14,1.38.43,2.43,1.85,2.62.67.09,1.71.19,2.14.19.29,0,.38.14.38.29,0,.24-.24.38-.76.38-2.62,0-5.61-.14-5.85-.14-.05,0-3.04.14-4.47.14-.52,0-.76-.1-.76-.38,0-.14.1-.29.38-.29.43,0,1-.1,1.43-.19.95-.19,1.19-1.24,1.38-2.62.24-2,.24-5.75.24-10.32v-8.37Zm3.8,4.14c0,.24.09.43.33.57.71.43,2.9.76,4.99.76,1.14,0,2.47-.14,3.57-.9,1.66-1.14,2.9-3.71,2.9-7.32,0-5.94-3.14-9.51-8.22-9.51-1.43,0-2.71.14-3.19.28-.24.1-.38.28-.38.57v15.55Z"/>
      <path class="cls-3" d="m416,64.25c-.67-.33-.71-.52-.71-1.81,0-2.38.19-4.28.24-5.04.05-.52.14-.76.38-.76.29,0,.33.14.33.52,0,.43,0,1.09.14,1.76.71,3.52,3.85,4.85,7.04,4.85,4.56,0,6.8-3.28,6.8-6.32,0-3.28-1.38-5.18-5.47-8.56l-2.14-1.76c-5.04-4.14-6.18-7.08-6.18-10.32,0-5.09,3.8-8.56,9.84-8.56,1.86,0,3.23.19,4.42.48.9.19,1.28.24,1.66.24s.48.1.48.33-.19,1.81-.19,5.04c0,.76-.1,1.09-.34,1.09-.29,0-.33-.24-.38-.62-.05-.57-.33-1.85-.62-2.38-.29-.52-1.57-2.52-5.94-2.52-3.28,0-5.85,2.05-5.85,5.52,0,2.71,1.24,4.42,5.8,7.99l1.33,1.04c5.61,4.42,6.94,7.37,6.94,11.17,0,1.95-.76,5.56-4.04,7.89-2.04,1.43-4.61,2-7.18,2-2.23,0-4.42-.33-6.37-1.28Z"/>
      <path class="cls-3" d="m460.35,51.08c0,4.56,0,8.32.24,10.32.14,1.38.43,2.43,1.85,2.62.67.09,1.71.19,2.14.19.29,0,.38.14.38.29,0,.24-.24.38-.76.38-2.62,0-5.61-.14-5.85-.14s-3.23.14-4.66.14c-.52,0-.76-.1-.76-.38,0-.14.1-.29.38-.29.43,0,1-.1,1.43-.19.95-.19,1.19-1.24,1.38-2.62.24-2,.24-5.75.24-10.32v-8.37c0-7.42,0-8.75-.09-10.27-.1-1.62-.57-2.42-1.62-2.66-.52-.14-1.14-.19-1.47-.19-.19,0-.38-.09-.38-.29,0-.28.24-.38.76-.38,1.57,0,4.57.14,4.8.14s3.23-.14,4.66-.14c.52,0,.76.1.76.38,0,.19-.19.29-.38.29-.33,0-.62.05-1.19.14-1.29.24-1.66,1.05-1.76,2.71-.09,1.52-.09,2.85-.09,10.27v8.37Z"/>
      <path class="cls-3" d="m497.62,51.08c0,4.56,0,8.32.24,10.32.14,1.38.43,2.43,1.86,2.62.66.09,1.71.19,2.14.19.28,0,.38.14.38.29,0,.24-.24.38-.76.38-2.61,0-5.61-.14-5.85-.14s-3.23.14-4.66.14c-.52,0-.76-.1-.76-.38,0-.14.1-.29.38-.29.43,0,1-.1,1.43-.19.95-.19,1.19-1.24,1.38-2.62.24-2,.24-5.75.24-10.32v-20.11l-7.04.1c-2.95.05-4.09.38-4.85,1.52-.52.81-.67,1.14-.81,1.47-.14.38-.29.48-.48.48-.14,0-.24-.14-.24-.43,0-.48.95-4.56,1.05-4.95.09-.28.29-.9.48-.9.33,0,.81.48,2.09.57,1.38.14,3.19.24,3.76.24h17.83c1.52,0,2.61-.1,3.38-.24.71-.1,1.14-.24,1.33-.24.24,0,.24.29.24.57,0,1.43-.14,4.71-.14,5.23,0,.43-.14.62-.33.62-.24,0-.33-.14-.38-.81l-.05-.52c-.14-1.43-1.28-2.52-5.85-2.61l-5.99-.1v20.11Z"/>
      <path class="cls-3" d="m535.84,52.56c0-2.57-.48-3.61-1.09-4.99-.33-.76-6.71-11.22-8.37-13.69-1.19-1.76-2.38-2.95-3.23-3.52-.71-.48-1.62-.76-2.04-.76-.24,0-.47-.09-.47-.33,0-.19.19-.33.62-.33.9,0,4.47.14,4.71.14.33,0,2.14-.14,3.99-.14.52,0,.62.14.62.33s-.29.24-.71.43c-.38.19-.62.48-.62.86,0,.57.24,1.14.62,1.85.76,1.38,7.89,13.65,8.75,15.02.9-2,6.94-12.41,7.89-13.98.62-1,.81-1.81.81-2.43,0-.66-.19-1.19-.76-1.33-.43-.14-.71-.24-.71-.47,0-.19.28-.29.76-.29,1.24,0,2.76.14,3.14.14.29,0,3.71-.14,4.61-.14.33,0,.62.1.62.29,0,.24-.24.38-.62.38-.52,0-1.43.19-2.19.67-.95.57-1.47,1.14-2.52,2.42-1.57,1.9-8.22,13.07-9.08,15.12-.71,1.71-.71,3.19-.71,4.75v4.09c0,.76,0,2.76.14,4.75.09,1.38.52,2.43,1.95,2.62.67.09,1.71.19,2.14.19.28,0,.38.14.38.29,0,.24-.24.38-.76.38-2.62,0-5.61-.14-5.85-.14s-3.24.14-4.66.14c-.52,0-.76-.1-.76-.38,0-.14.09-.29.38-.29.43,0,1-.1,1.43-.19.95-.19,1.38-1.24,1.47-2.62.14-2,.14-3.99.14-4.75v-4.09Z"/>
      <path class="cls-3" d="m598.03,28.26c10.7,0,18.68,6.75,18.68,17.83s-7.51,19.45-18.97,19.45c-13.03,0-18.45-10.13-18.45-18.68,0-7.7,5.61-18.59,18.73-18.59Zm1,35.47c4.28,0,13.12-2.47,13.12-16.31,0-11.41-6.94-17.54-14.45-17.54-7.94,0-13.88,5.23-13.88,15.64,0,11.08,6.66,18.21,15.21,18.21Z"/>
      <path class="cls-3" d="m638.43,42.71c0-7.42,0-8.75-.1-10.27-.1-1.62-.47-2.38-2.04-2.71-.38-.1-1.19-.14-1.62-.14-.19,0-.38-.09-.38-.29,0-.28.24-.38.76-.38,1.09,0,2.38,0,3.42.05l1.95.1c.95.05,10.6,0,11.7-.05.9-.05,1.66-.05,2.09-.19.29-.1.48-.28.67-.28s.29.19.29.43c0,.33-.24.9-.38,2.23-.05.48-.14,2.57-.24,3.14-.05.24-.14.52-.38.52s-.33-.24-.33-.57c0-.38-.14-1.19-.43-1.81-.29-.62-1.38-1.48-3.23-1.52l-7.32-.14c-.28,0-.43.14-.43.52v13.12c0,.29.05.43.33.43l6.08-.05c.81,0,1.47,0,2.14-.05,1.14-.1,1.76-.24,2.19-.86.19-.24.33-.48.52-.48s.24.14.24.38c0,.28-.24,1.09-.38,2.66-.1.95-.19,2.85-.19,3.19,0,.43,0,.9-.33.9-.24,0-.33-.19-.33-.43-.05-.48-.09-1.14-.28-1.71-.24-.67-1-1.52-2.47-1.71-1.19-.14-6.37-.14-7.18-.14-.24,0-.33.09-.33.43v4.04c0,4.56,0,8.32.24,10.32.14,1.38.43,2.43,1.85,2.62.67.09,1.71.19,2.14.19.29,0,.38.14.38.29,0,.24-.24.38-.76.38-2.61,0-5.61-.14-5.85-.14s-3.24.14-4.66.14c-.52,0-.76-.1-.76-.38,0-.14.09-.29.38-.29.43,0,1-.1,1.43-.19.95-.19,1.19-1.24,1.38-2.62.24-2,.24-5.75.24-10.32v-8.37Z"/>
    </g>
  </g>
  <g>
    <g>
      <path class="cls-10" d="m82.81,141.86s6.26-.87,11.35-2.08c4.53-1.08,8.87-2.58,8.87-2.58l-3.23-6.25,2.84-7.78s-5.39,1.54-10.13,2.55c-4.92,1.04-9.61,1.46-9.61,1.46l-.09,14.7Z"/>
      <path class="cls-10" d="m26.65,141.86s-6.26-.87-11.35-2.08c-4.52-1.08-8.87-2.58-8.87-2.58l3.23-6.25-2.84-7.78s5.39,1.54,10.13,2.55c4.92,1.04,9.61,1.46,9.61,1.46l.09,14.7Z"/>
    </g>
    <path class="cls-6" d="m54.74,9.05s12.42,14.04,26.71,18.25c6.93,2.04,13.39,2.57,18.21,2.57,5.13,0,8.4-.6,8.4-.6,0,0,.39,25.96.39,44.72,0,31.91-16.71,53.09-31.58,67.3-13.18,12.6-20.61,15.46-22.12,15.95,0,0-8.91-3.27-22.17-15.95C17.72,127.08.99,106.41.99,73.99c0-18.33.41-44.72.41-44.72,0,0,3.27.6,8.4.6,4.82,0,11.29-.53,18.21-2.57,14.3-4.22,26.73-18.25,26.73-18.25Z"/>
    <g>
      <rect class="cls-3" x="21.54" y="74.86" width="66.38" height="62.24"/>
      <path class="cls-5" d="m21.84,63.53s7.54-12.23,8.39-23.93c.34-4.65.02-9.8.54-14.46.69-6.23,5.92-16.97,5.92-16.97h36.07s5.23,10.75,5.92,16.98c.52,4.67.2,9.82.54,14.46.85,11.69,8.38,23.93,8.38,23.93H21.84Z"/>
      <g>
        <polygon class="cls-3" points="79.21 143.77 30.24 143.77 30.24 78.98 79.21 78.98 79.21 143.77 79.21 143.77"/>
        <path class="cls-2" d="m80.36,77.83v67.09H29.09v-67.09h51.28m-2.3,2.3H31.39v62.48h46.67v-62.48h0Z"/>
      </g>
      <g>
        <polygon class="cls-3" points="73.28 8.7 72.76 8.7 36.69 8.69 36.18 8.69 36.18 8.17 36.18 6.07 36.18 5.55 36.69 5.55 72.76 5.55 73.28 5.55 73.28 6.07 73.28 8.18 73.28 8.7 73.28 8.7"/>
        <path class="cls-3" d="m72.76,6.07v2.11h-36.07v-2.11h36.07m1.04-1.04h-38.14v4.17h1.04s36.07.01,36.07.01h1.04s0-1.04,0-1.04v-3.15h0Z"/>
      </g>
      <polygon class="cls-4" points="75.7 4.3 34.89 4.3 33.75 4.3 32.27 .99 77.19 .99 75.7 4.3"/>
      <polygon class="cls-4" points="36.71 6.07 34.9 4.3 74.56 4.3 72.77 6.07 36.71 6.07"/>
      <g>
        <path class="cls-3" d="m21.92,75.57c-.36-.53-1.65-2.36-3.69-4.4-2.54-2.54-5.84-3.92-6.55-4.2l-2.39-5.57h90.87l-2.39,5.57c-.69.29-3.97,1.75-6.4,4.18-2.18,2.18-3.18,3.8-3.48,4.33l-65.97.07h0Z"/>
        <path class="cls-1" d="m100.66,61.08l-2.64,6.16s-3.76,1.5-6.41,4.16c-2.61,2.61-3.52,4.43-3.52,4.43l-66.35.07s-1.37-2.12-3.75-4.5c-2.78-2.78-6.57-4.17-6.57-4.17l-2.64-6.16h91.87m-1,.66H9.8l2.13,4.98c.94.38,4.09,1.77,6.53,4.22,1.9,1.9,3.16,3.62,3.63,4.3l65.61-.07c.4-.68,1.43-2.23,3.44-4.24,2.35-2.35,5.47-3.8,6.38-4.2l2.14-4.99h0Z"/>
      </g>
      <g>
        <polygon class="cls-2" points="80.81 101.19 80.35 101.19 29.1 101.19 28.65 101.19 28.65 100.73 28.65 97.95 28.65 97.5 29.1 97.5 80.35 97.5 80.81 97.5 80.81 97.95 80.81 100.73 80.81 101.19 80.81 101.19"/>
        <path class="cls-3" d="m80.35,97.95v2.78H29.1v-2.78h51.25m.92-.92H28.19v4.61h53.08v-4.61h0Z"/>
      </g>
      <path class="cls-1" d="m75.37,38.43c-.28-3.91-.02-8.26-.45-12.19-.41-3.68-2.7-8.95-4.03-11.78-.33.26-.75.43-1.21.43-1.09,0-1.98-.89-1.98-1.98,0-.14.02-.28.04-.41h-26.06c.03.14.05.28.05.44,0,1.09-.89,1.98-1.98,1.98-.46,0-.87-.16-1.2-.42-1.33,2.83-3.6,8.07-4.01,11.73-.44,3.93-.17,8.27-.45,12.19-.71,9.85-5.74,20.16-5.74,20.16h52.77s-5.03-10.3-5.74-20.15Z"/>
      <g>
        <path class="cls-9" d="m66.52,35.73c0-6.53-5.3-11.83-11.83-11.83s-11.83,5.3-11.83,11.83h-2.56l1.6,4.06h1.67l4.49,11.49h-2.47v2.96h18.4v-2.96h-2.64l4.32-11.43h1.89l1.6-4.08-2.64-.04Z"/>
        <path class="cls-3" d="m62.85,35.73c0,4.51-3.65,8.17-8.16,8.17s-8.17-3.66-8.17-8.17,3.66-8.17,8.17-8.17,8.16,3.66,8.16,8.17Z"/>
      </g>
      <polygon class="cls-5" points="32.27 .99 33.75 4.3 34.89 4.3 36.69 6.07 72.76 6.07 74.54 4.3 75.7 4.3 77.19 .99 32.27 .99"/>
      <g>
        <polygon class="cls-2" points="97.37 66.24 12.08 66.24 10.3 62.07 99.16 62.07 97.37 66.24 97.37 66.24"/>
        <path class="cls-1" d="m100.66,61.08l-2.64,6.16H11.43l-2.64-6.16h91.87m-3.01,1.99H11.8l.94,2.19h83.97l.94-2.19h0Z"/>
      </g>
      <g>
        <g>
          <path class="cls-2" d="m77.64,97.45h-45.28s-.5,0-.5,0v-.5c0-4.76,3.57-8.63,7.96-8.63,3.42,0,6.34,2.35,7.46,5.63,1.13-3.28,4.05-5.63,7.46-5.63s6.34,2.35,7.46,5.63c1.13-3.28,4.05-5.63,7.46-5.63,4.39,0,7.96,3.87,7.96,8.63v.5h0Z"/>
          <path class="cls-3" d="m54.75,88.82c4.12,0,7.46,3.64,7.46,8.13,0-4.49,3.34-8.13,7.46-8.13s7.46,3.64,7.46,8.13h-44.78c0-4.49,3.34-8.14,7.46-8.14s7.46,3.64,7.46,8.13c0-4.49,3.34-8.13,7.46-8.13m0-.99c-3.23,0-6.04,1.96-7.46,4.84-1.42-2.88-4.24-4.84-7.46-4.84-4.66,0-8.46,4.09-8.46,9.13v.99h45.77s.99,0,.99,0v-.99c0-5.03-3.79-9.13-8.45-9.13-3.23,0-6.04,1.96-7.46,4.84-1.42-2.88-4.24-4.84-7.46-4.84h0Z"/>
        </g>
        <g>
          <path class="cls-7" d="m34.84,123.23v-25.86s0-5.61,4.93-5.61,4.92,5.61,4.92,5.61v25.86h-9.84Z"/>
          <polygon class="cls-7" points="40.86 91.72 38.67 91.72 38.17 86.25 41.36 86.25 40.86 91.72"/>
        </g>
        <g>
          <path class="cls-7" d="m49.84,123.23v-25.86s0-5.61,4.93-5.61,4.92,5.61,4.92,5.61v25.86h-9.84Z"/>
          <polygon class="cls-7" points="55.86 91.72 53.67 91.72 53.17 86.25 56.36 86.25 55.86 91.72"/>
        </g>
        <g>
          <path class="cls-7" d="m64.84,123.23v-25.86s.01-5.61,4.93-5.61,4.92,5.61,4.92,5.61v25.86h-9.85Z"/>
          <polygon class="cls-7" points="70.86 91.72 68.67 91.72 68.17 86.25 71.35 86.25 70.86 91.72"/>
        </g>
      </g>
    </g>
    <g>
      <path class="cls-8" d="m20.88,130.79v14.85s13.64,2.94,33.73,2.94,33.7-2.94,33.7-2.94l.03-14.85s-13.56,2.75-33.96,2.75-33.49-2.75-33.49-2.75Z"/>
      <g>
        <g>
          <path class="cls-3" d="m45.42,145.48c-.5-.07-.83-.11-.94-.12-.39-.06-.93-.1-1.25-.13h-.13c-.31-.04-1.22-.11-1.66-.12-.11,0-.52-.02-.83-.03-.15,0-.23-.07-.22-.2l.03-.35.16-.08s.44,0,.44,0c.98,0,1.23-.12,1.29-.19.14-.14.16-.44.2-.91l.33-4.07c.02-.31.1-1.25-.04-1.54-.04-.08-.15-.13-.32-.13-.07,0-.13,0-.2,0-.1,0-.59.02-.73.02-.21-.13-.21-.32-.19-.53v-.1s.11,0,.11,0c.94-.1,1.44-.19,2.13-.55l.13-.06c.12-.06.24-.12.34-.12.11,0,.39.03.39.03l-.58,7.18c-.04.5-.04.81.07.96.14.23,1.03.37,1.32.42.1.02.18.03.21.04l.1.03.04.15-.03.36-.16.05h0Z"/>
          <path class="cls-1" d="m44.06,136.39h0c.1,0,.18.02.25.02l-.57,7.05c-.04.54-.04.86.1,1.04.21.34,1.46.46,1.59.5.05.02.05,0,.05.04l-.02.25s-.02.05-.04.05h0c-.49-.07-.82-.11-.93-.12-.44-.06-1.1-.12-1.39-.14-.32-.03-1.22-.1-1.67-.11-.11,0-.58-.02-.9-.03-.03,0-.04-.02-.04-.06l.02-.25s0-.05.06-.06c.02,0,.05,0,.1,0,.08,0,.19,0,.32,0,.48,0,1.21-.02,1.39-.23.17-.16.19-.47.23-.98l.33-4.07c.03-.37.1-1.28-.05-1.61-.06-.13-.22-.2-.43-.2-.06,0-.13,0-.2,0-.22,0-.47.02-.73.02-.08-.06-.08-.19-.07-.39.99-.1,1.5-.21,2.18-.56.13-.06.31-.17.41-.17m0-.25c-.13,0-.26.07-.4.14-.04.02-.08.04-.11.06-.62.32-1.07.43-2.1.54l-.21.02-.02.21c-.02.19-.04.45.16.61l.07.06h.09c.14,0,.28,0,.41,0,.11,0,.22,0,.32,0,.06,0,.12,0,.18,0,.15,0,.21.04.22.06.08.18.09.68.03,1.48l-.33,4.07c-.03.42-.06.72-.16.82-.04.04-.21.16-1.21.16h-.2s-.12,0-.12,0c-.06,0-.11,0-.13,0-.12.02-.26.09-.28.29l-.02.25c-.01.2.12.32.27.33h.08c.31.01.72.02.82.03.45.01,1.39.08,1.66.11h.13c.32.04.87.09,1.24.14.12.01.45.05.93.12h0c.16,0,.31-.09.32-.28l.02-.25.02-.22-.23-.08s-.13-.03-.24-.05c-.96-.16-1.18-.29-1.23-.35-.1-.14-.1-.44-.06-.89l.57-7.05.02-.26h-.26c-.07-.01-.14-.02-.23-.03h-.03Z"/>
        </g>
        <g>
          <path class="cls-3" d="m50.52,145.89c-1.73-.04-2.78-.95-2.74-2.36.03-.98.83-1.97,1.91-2.39-.71-.48-1.48-1.09-1.45-2.26.03-1.32.98-2.15,2.47-2.15,1.22.03,2.42.68,2.39,2.02-.03,1.1-1.03,1.77-1.51,2.03,1.09.7,1.79,1.44,1.76,2.62-.03,1.21-1,2.5-2.75,2.5h-.09Zm-.2-4.38c-.7.35-1.11,1.03-1.13,1.87-.03,1.19.8,1.84,1.41,1.86h0c.82,0,1.38-.64,1.4-1.56.02-1-.68-1.53-1.69-2.16Zm.32-4.13c-.73,0-1.05.78-1.06,1.2-.02.76.73,1.3,1.39,1.78l.05.04c.56-.45.8-.92.82-1.59.02-.67-.28-1.4-1.16-1.42l-.03-.12v.12Z"/>
          <path class="cls-1" d="m50.71,136.85s.06,0,.09,0c1.17.03,2.2.69,2.17,1.89-.03,1.09-1.09,1.77-1.64,2.02,1.16.72,1.92,1.43,1.89,2.63-.03,1.08-.91,2.37-2.62,2.37-.03,0-.06,0-.09,0-1.49-.04-2.65-.77-2.62-2.23.03-1.05.98-2.03,2.06-2.36-.8-.53-1.63-1.12-1.6-2.29.03-1.32,1.01-2.02,2.35-2.02m.3,3.69c.63-.48.92-.98.94-1.74.02-.7-.29-1.52-1.29-1.55h-.03c-.79,0-1.18.82-1.19,1.32-.02.88.87,1.47,1.56,1.97m-.37,4.82c.85,0,1.47-.69,1.49-1.69.03-1.12-.81-1.69-1.8-2.31-.79.37-1.24,1.12-1.26,2.01-.03,1.28.87,1.97,1.54,1.98.01,0,.03,0,.04,0m.07-8.76h0c-1.54,0-2.56.89-2.6,2.27-.03,1.12.66,1.77,1.31,2.24-1.02.48-1.75,1.46-1.78,2.42-.04,1.49,1.06,2.44,2.86,2.49h.09c1.76,0,2.84-1.33,2.87-2.62.03-1.17-.62-1.92-1.65-2.61.71-.43,1.37-1.13,1.39-2.03.03-1.22-.96-2.11-2.42-2.15h-.1Zm.29,3.63c-.63-.45-1.32-.96-1.31-1.65,0-.38.3-1.08.94-1.08,1.02.03,1.07,1,1.06,1.29-.01.61-.21,1.03-.7,1.44h0Zm-.36,5.13l-.03-.25c-.56-.01-1.32-.62-1.29-1.73.02-.77.38-1.39,1-1.73.97.61,1.59,1.1,1.57,2.02-.02.85-.53,1.44-1.24,1.44v.25h0Z"/>
        </g>
        <g>
          <path class="cls-3" d="m57.63,145.91c-.28,0-.44-.04-.53-.14-.09-.09-.09-.2-.09-.28.03-1.02.81-2.73,1.44-4.1.37-.81,1.18-2.47,1.71-3.35l-1.82.05c-.61.01-1.3.02-1.52.19-.24.18-.27.28-.33.47-.02.08-.05.17-.09.28-.08.2-.29.21-.58.21h-.15s-.07-.14-.07-.14l.35-2.17,5.3-.14.02.83c-1.51,2.14-2.67,5.41-2.78,7.86-.01.33-.28.4-.76.41h-.1Z"/>
          <path class="cls-1" d="m61.13,136.94l.02.7c-1.48,2.05-2.66,5.35-2.78,7.85,0,.19-.12.28-.64.29-.03,0-.06,0-.09,0-.4,0-.5-.08-.49-.29.03-.99.81-2.71,1.43-4.05.43-.94,1.32-2.77,1.83-3.54l-2.05.05c-.61.01-1.33.02-1.59.22-.38.29-.31.42-.46.81-.05.14-.23.13-.56.14l.33-2.06,5.07-.13m.24-.26h-.25s-5.07.14-5.07.14h-.21s-.03.21-.03.21l-.33,2.06-.05.3h.3s.09,0,.09,0c.3,0,.59-.01.7-.3.04-.11.07-.21.1-.29.05-.18.07-.25.28-.41.2-.15.91-.16,1.39-.17h.06s1.6-.04,1.6-.04c-.53.92-1.25,2.41-1.6,3.17-.63,1.38-1.42,3.1-1.45,4.15,0,.05,0,.23.12.37.15.15.39.17.62.17h.1c.32,0,.86-.02.88-.53.11-2.43,1.26-5.67,2.73-7.72l.05-.07v-.08s-.02-.7-.02-.7v-.25h0Z"/>
        </g>
        <g>
          <path class="cls-3" d="m64.33,145.46l-.05-.17-.03-.35.15-.1s.11-.02.22-.04c.33-.05,1.32-.2,1.45-.42.12-.16.09-.47.05-.93l-.33-4.07c-.02-.31-.1-1.24-.29-1.52-.04-.05-.12-.08-.23-.08-.03,0-.07,0-.1,0-.16.01-.33.05-.52.08-.13.02-.26.05-.39.07-.23-.09-.25-.28-.27-.49v-.1s.09-.03.09-.03c1.01-.27,1.44-.46,2.02-.88l.11-.08c.12-.09.23-.17.34-.18l.37-.03.58,7.18c.04.5.09.8.22.94.08.1.37.2,1.31.2,0,0,.25,0,.27,0h.1s.07.15.07.15l.03.37-.16.07c-.5.01-.83.03-.94.04-.41,0-.98.05-1.3.07l-.3.03c-.4.04-1.08.09-1.44.15-.09,0-.36.04-.62.08l-.29.04h-.12Z"/>
          <path class="cls-1" d="m66.81,136.29l.57,7.05c.04.54.09.85.26,1.02.2.23.98.24,1.39.24h.13c.06,0,.1,0,.12,0,.06,0,.05,0,.06.04l.02.25s0,.06-.04.06c-.5.01-.83.02-.94.04-.44,0-1.1.06-1.39.08-.32.03-1.22.1-1.66.16-.11,0-.58.07-.89.11h0s-.04-.01-.04-.05l-.02-.25s0-.05.05-.07c.13-.04,1.54-.18,1.74-.51.14-.19.11-.49.07-1l-.33-4.07c-.03-.37-.1-1.28-.31-1.58-.06-.09-.18-.14-.33-.14-.04,0-.08,0-.12,0-.26.02-.57.1-.92.16-.09-.05-.11-.17-.13-.38.96-.26,1.44-.45,2.06-.9.12-.08.29-.23.38-.24.09,0,.18-.02.25-.02m.23-.26h-.24c-.05.02-.11.02-.18.03h-.07c-.14.02-.27.11-.4.21-.03.03-.07.05-.1.07-.57.41-.99.6-1.99.87l-.2.05.02.21c.02.19.04.46.26.58l.07.04h.08c.14-.04.27-.06.4-.09.18-.04.35-.07.5-.08.04,0,.07,0,.1,0,.09,0,.12.02.12.03.08.12.19.46.27,1.46l.33,4.07c.03.42.06.72-.03.84-.06.08-.3.22-1.37.38-.12.02-.2.03-.23.04-.12.04-.24.12-.23.32l.02.26c.01.19.16.28.29.28l.3-.04c.26-.04.53-.07.61-.08.37-.05,1.05-.11,1.45-.15l.21-.02h.09c.31-.03.89-.07,1.28-.08.13-.01.47-.02.94-.04.16-.02.3-.13.28-.33l-.02-.24-.02-.22-.24-.04s-.1,0-.17,0h-.13c-.99,0-1.17-.12-1.21-.15-.12-.12-.16-.42-.2-.87l-.57-7.05-.02-.24h0Z"/>
        </g>
      </g>
    </g>
  </g>
  <path class="cls-3" d="m653.56,146.7c0-1.92,1.57-3.5,3.52-3.5s3.5,1.57,3.5,3.5-1.56,3.52-3.5,3.52-3.52-1.57-3.52-3.52Zm6.46,0c0-1.7-1.24-3.04-2.94-3.04s-2.96,1.33-2.96,3.04,1.25,3.05,2.96,3.05,2.94-1.33,2.94-3.05Zm-1.19,1.96h-.57l-1.12-1.8h-.88v1.8h-.48v-3.91h1.71c1.04,0,1.39.39,1.39,1.04,0,.77-.54,1.05-1.23,1.07l1.18,1.8Zm-1.84-2.18c.55,0,1.37.09,1.37-.7,0-.61-.5-.68-.98-.68h-1.12v1.39h.73Z"/>
</svg>