<?xml version="1.0" encoding="UTF-8"?>
<svg id="Layer_1" data-name="Layer 1" xmlns="http://www.w3.org/2000/svg" viewBox="0 0 663.32 506.27">
  <defs>
    <style>
      .cls-1 {
        stroke-width: 4px;
      }

      .cls-1, .cls-2, .cls-3, .cls-4 {
        stroke: #231f20;
      }

      .cls-1, .cls-5, .cls-6, .cls-7, .cls-8, .cls-3, .cls-9, .cls-10 {
        fill: #fff;
      }

      .cls-11, .cls-6, .cls-12 {
        stroke-width: 0px;
      }

      .cls-2 {
        stroke-width: 4px;
      }

      .cls-2, .cls-13 {
        fill: #a32035;
      }

      .cls-5, .cls-7 {
        stroke: #000;
        stroke-width: 3.71px;
      }

      .cls-5, .cls-10 {
        stroke-linecap: round;
      }

      .cls-8 {
        stroke-width: .81px;
      }

      .cls-8, .cls-13, .cls-9, .cls-10 {
        stroke: #fff;
      }

      .cls-12, .cls-4 {
        fill: #231f20;
      }

      .cls-3 {
        stroke-width: 2px;
      }

      .cls-13, .cls-9, .cls-10 {
        stroke-width: 8px;
      }

      .cls-4 {
        stroke-width: 2.09px;
      }
    </style>
  </defs>
  <g>
    <path class="cls-10" d="m259.74,265.52v29.92s27.47,5.93,67.95,5.93,67.9-5.93,67.9-5.93l.05-29.92s-27.33,5.53-68.42,5.53-67.48-5.53-67.48-5.53Z"/>
    <g>
      <g>
        <path class="cls-12" d="m309.03,298.86l-.28-.02h-.1c-.86-.13-1.44-.2-1.66-.22l-.25-.03c-.68-.1-1.77-.19-2.36-.24l-.35-.03c-.62-.05-2.25-.17-2.95-.19h-.2c-.15-.02-.57-.03-.99-.04l-.81-.02-.15-.02c-2.2-.24-3.79-2.16-3.64-4.38l.04-.54c.16-1.93,1.55-3.44,3.46-3.76l.18-.03c.11-.01.34-.03.65-.03h.03l.5-6.25h-.19l-1.1-.88c-1.22-.98-1.76-2.4-1.62-4.23l.27-3.32,3.32-.34c1.72-.17,2.2-.31,2.96-.71l.16-.08c.5-.27,1.36-.71,2.48-.71h.16l.64.05,4.03.28-1.37,17.09c.09.02.25.05.25.05,2.02.45,3.35,2.27,3.17,4.34l-.04.46c-.15,2.14-1.9,3.78-4.07,3.78h-.17Z"/>
        <path class="cls-6" d="m306.44,276.8s.01,0,.02,0c.19.01.36.03.5.04l-1.14,14.21c-.09,1.08-.08,1.72.19,2.11.42.68,2.94.93,3.21,1.01.11.03.11,0,.1.09l-.04.5c0,.08-.03.1-.08.1,0,0,0,0-.01,0-.99-.13-1.66-.22-1.88-.23-.88-.13-2.21-.23-2.79-.28-.64-.05-2.47-.19-3.36-.21-.22-.02-1.17-.04-1.81-.06-.05,0-.08-.04-.07-.12l.04-.5c0-.08,0-.11.12-.13.03,0,.09,0,.18,0,.16,0,.39,0,.67,0,.96,0,2.43-.05,2.79-.46.33-.34.38-.94.47-1.97l.66-8.2c.06-.75.21-2.58-.1-3.24-.12-.26-.44-.4-.86-.41-.13-.01-.27-.01-.42-.01-.44,0-.93.03-1.45.03-.16-.13-.17-.38-.13-.79,2-.2,3.02-.42,4.38-1.12.25-.12.62-.35.82-.35m0-8h0c-2.09,0-3.61.79-4.28,1.14l-.03.02-.15.08c-.21.11-.31.16-1.54.29l-6.64.67-.53,6.65c-.31,3.85,1.43,6.18,2.73,7.35l-.09,1.16c-2.53,1.23-4.31,3.73-4.55,6.65l-.04.52v.04s0,.04,0,.04c-.31,4.38,2.86,8.18,7.21,8.64l.29.03h.29s.67.03.67.03c.35.01.7.02.89.03h.14s.2.01.2.01c.39,0,1.31.07,2.72.18h.15s.17.03.17.03c.51.04,1.57.13,2.12.21l.25.04.21.02c.25.03.76.09,1.48.19l.2.03.2.02.34.03h.36c4.2,0,7.72-3.28,8.06-7.47l.04-.48c.24-2.89-1.02-5.54-3.19-7.14l.83-10.29.65-8.05-8.06-.57-.21-.02-.26-.02-.3-.02h-.32Z"/>
      </g>
      <g>
        <path class="cls-12" d="m319.37,299.68c-5.52-.14-9.3-3.67-9.17-8.6.05-1.83.79-3.63,2-5.12-.66-1.13-1.11-2.53-1.06-4.25.12-4.7,3.71-7.97,8.72-7.97h.29c4.91.13,8.39,3.46,8.28,7.91-.04,1.57-.54,2.87-1.23,3.93,1.03,1.36,1.79,3.13,1.74,5.42-.11,4.27-3.61,8.68-9.28,8.68h-.28Z"/>
        <path class="cls-6" d="m319.85,277.74c.06,0,.13,0,.19,0,2.36.06,4.44,1.39,4.38,3.81-.06,2.2-2.2,3.56-3.3,4.06,2.33,1.45,3.87,2.88,3.81,5.29-.06,2.18-1.84,4.78-5.28,4.78-.06,0-.12,0-.18,0-3-.08-5.35-1.55-5.28-4.5.05-2.11,1.97-4.09,4.15-4.76-1.61-1.07-3.28-2.25-3.22-4.61.07-2.66,2.04-4.08,4.72-4.08m.62,7.44c1.28-.97,1.86-1.98,1.89-3.51.04-1.42-.59-3.07-2.59-3.12-.02,0-.04,0-.06,0-1.6,0-2.37,1.65-2.4,2.66-.04,1.78,1.76,2.96,3.15,3.97m-.75,9.7c1.71,0,2.95-1.4,3-3.39.06-2.25-1.64-3.41-3.63-4.65-1.6.74-2.5,2.25-2.55,4.05-.07,2.58,1.76,3.96,3.09,4,.03,0,.06,0,.08,0m.13-25.14h0c-7.19,0-12.54,4.99-12.72,11.87-.04,1.48.17,2.79.53,3.96-.89,1.67-1.41,3.52-1.46,5.41-.18,7.17,5.32,12.51,13.08,12.7.12,0,.25,0,.38,0,8.11,0,13.12-6.4,13.28-12.58.06-2.25-.44-4.15-1.21-5.74.42-1.15.66-2.37.69-3.61.17-6.66-5.06-11.82-12.16-12.01-.14,0-.27,0-.4,0h0Z"/>
      </g>
      <g>
        <path class="cls-12" d="m333.79,299.73c-.59,0-2.4,0-3.77-1.43-.84-.87-1.27-2.05-1.22-3.31.07-2.38,1.26-5.31,2.86-8.84-.43.1-.91.16-1.44.17l-5,.14,1.97-12.21,17.54-.45.17,6.76-.79,1.09c-2.57,3.57-4.66,9.44-4.85,13.67-.03.7-.42,4.28-5.19,4.4h-.29Z"/>
        <path class="cls-6" d="m340.84,277.9l.04,1.42c-2.98,4.14-5.37,10.79-5.6,15.82-.02.39-.23.56-1.29.59-.07,0-.13,0-.19,0-.81,0-1.01-.17-.99-.58.06-2,1.64-5.46,2.88-8.16.87-1.89,2.67-5.57,3.68-7.13l-4.14.11c-1.22.03-2.67.04-3.21.44-.76.57-.62.85-.93,1.64-.1.28-.46.26-1.13.28l.67-4.16,10.22-.26m7.79-8.2l-8,.2-10.22.26-6.63.17-1.06,6.55-.67,4.16-1.54,9.54,5.13-.14c-.48,1.55-.79,3.02-.83,4.44-.08,2.34.75,4.54,2.34,6.19,1.69,1.76,3.93,2.65,6.65,2.65.12,0,.26,0,.4,0,6-.15,8.91-4.38,9.07-8.24.16-3.4,2-8.57,4.1-11.49l1.57-2.19-.07-2.69-.04-1.42-.2-8h0Z"/>
      </g>
      <g>
        <path class="cls-12" d="m347.52,298.82c-2.14,0-3.89-1.62-4.07-3.77l-.04-.5c-.12-2,1.02-3.69,2.84-4.28l.17-.05c.09-.03.32-.08.64-.13l-.5-6.26-.17.03-1.2-.66c-1.38-.76-2.16-2.08-2.31-3.92l-.28-3.34,3.23-.86c1.66-.44,2.12-.66,2.82-1.18l.16-.11c.5-.37,1.36-1.03,2.66-1.13l.54-.04,3.95-.28,1.37,17.01c.19,0,.32.02.4.03l.16.02c1.9.25,3.33,1.73,3.51,3.67l.17,2.17-1.06,1.34c-.7.84-1.69,1.35-2.79,1.45h-.12s-.12.01-.12.01c-.86.02-1.44.04-1.67.06h-.12s-.15.01-.15.01c-.67,0-1.76.09-2.35.14l-.47.04c-.65.05-2.16.18-2.81.28l-.12.02h-.12c-.14.02-.52.08-.92.13l-.88.11h-.33Z"/>
        <path class="cls-6" d="m352.28,276.6l1.14,14.21c.08,1.08.19,1.72.52,2.05.39.45,1.93.48,2.78.48.12,0,.23,0,.31,0,.11,0,.2,0,.23,0,.11.02.11-.01.12.08l.04.5c0,.08-.02.11-.08.12-1,.03-1.67.05-1.89.07-.89.01-2.22.12-2.8.16-.64.05-2.47.2-3.35.33-.22.02-1.16.15-1.79.23,0,0,0,0,0,0-.05,0-.08-.03-.09-.1l-.04-.5c0-.08,0-.11.1-.15.27-.08,3.09-.36,3.51-1.04.28-.39.23-.99.15-2.02l-.66-8.2c-.06-.75-.21-2.58-.62-3.19-.12-.19-.36-.28-.66-.28-.08,0-.16,0-.25.02-.53.04-1.15.2-1.84.31-.17-.1-.22-.34-.26-.76,1.94-.52,2.91-.91,4.15-1.81.24-.16.58-.46.77-.48.19-.02.36-.03.5-.04m7.34-8.54l-7.9.56c-.12,0-.25.02-.4.03l-.18.02c-2.4.19-4.02,1.38-4.67,1.87l-.03.02-.15.11c-.21.15-.3.22-1.49.54l-6.47,1.73.56,6.67c.32,3.82,2.38,5.83,3.86,6.79l.09,1.14c-2.29,1.58-3.62,4.24-3.44,7.17v.09s.01.09.01.09l.04.5c.36,4.24,3.82,7.43,8.06,7.43h.26s.38-.02.38-.02l.38-.05.71-.09c.32-.04.63-.08.81-.11h.16s.24-.05.24-.05c.53-.08,2.07-.21,2.58-.25l.27-.02h.18c.5-.05,1.55-.13,2.1-.14h.28s.23-.02.23-.02c.25-.01.76-.03,1.47-.05h.24s.24-.03.24-.03c2.17-.19,4.12-1.21,5.51-2.87,1.37-1.64,2.02-3.72,1.85-5.87l-.04-.47v-.05s0-.05,0-.05c-.26-2.81-1.92-5.18-4.28-6.42l-.83-10.32-.64-7.9h0Z"/>
      </g>
    </g>
  </g>
  <g>
    <path class="cls-9" d="m384.51,287.81s12.62-1.76,22.86-4.2c9.12-2.17,17.88-5.2,17.88-5.2l-6.51-12.6,5.72-15.68s-10.86,3.1-20.41,5.13c-9.92,2.1-19.36,2.95-19.36,2.95l-.18,29.61Z"/>
    <path class="cls-9" d="m271.36,287.81s-12.62-1.76-22.86-4.19c-9.12-2.17-17.87-5.2-17.87-5.2l6.51-12.6-5.72-15.68s10.86,3.1,20.41,5.13c9.91,2.1,19.36,2.95,19.36,2.95l.18,29.61Z"/>
  </g>
  <path class="cls-9" d="m261.69,130s15.19-24.64,16.9-48.21c.68-9.36.04-19.74,1.09-29.14,1.39-12.55,11.94-34.2,11.94-34.2l72.67.02s10.54,21.64,11.94,34.19c1.04,9.4.41,19.78,1.08,29.14,1.71,23.56,16.89,48.21,16.89,48.21l-132.5-.02Z"/>
  <polygon class="cls-9" points="282.69 4 285.68 10.66 287.96 10.66 291.6 14.23 364.28 14.23 367.86 10.66 370.19 10.66 373.19 4 282.69 4"/>
  <path class="cls-13" d="m327.97,20.23s25.02,28.28,53.83,36.78c13.96,4.12,26.98,5.18,36.69,5.18,10.33,0,16.92-1.2,16.92-1.2,0,0,.79,52.3.79,90.1,0,64.29-33.67,106.97-63.62,135.59-26.56,25.39-41.52,31.15-44.57,32.13,0,0-17.95-6.58-44.68-32.13-29.95-28.62-63.66-70.27-63.66-135.59,0-36.94.83-90.1.83-90.1,0,0,6.59,1.2,16.92,1.2,9.72,0,22.74-1.06,36.7-5.18,28.8-8.5,53.85-36.78,53.85-36.78Z"/>
  <g>
    <path class="cls-7" d="m384.51,287.81s12.62-1.76,22.86-4.2c9.12-2.17,17.88-5.2,17.88-5.2l-6.51-12.6,5.72-15.68s-10.86,3.1-20.41,5.13c-9.92,2.1-19.36,2.95-19.36,2.95l-.18,29.61Z"/>
    <path class="cls-7" d="m271.36,287.81s-12.62-1.76-22.86-4.19c-9.12-2.17-17.87-5.2-17.87-5.2l6.51-12.6-5.72-15.68s10.86,3.1,20.41,5.13c9.91,2.1,19.36,2.95,19.36,2.95l.18,29.61Z"/>
  </g>
  <path class="cls-2" d="m327.97,20.23s25.02,28.28,53.83,36.78c13.96,4.12,26.98,5.18,36.69,5.18,10.33,0,16.92-1.2,16.92-1.2,0,0,.79,52.3.79,90.1,0,64.29-33.67,106.97-63.62,135.59-26.56,25.39-41.52,31.15-44.57,32.13,0,0-17.95-6.58-44.68-32.13-29.95-28.62-63.66-70.27-63.66-135.59,0-36.94.83-90.1.83-90.1,0,0,6.59,1.2,16.92,1.2,9.72,0,22.74-1.06,36.7-5.18,28.8-8.5,53.85-36.78,53.85-36.78Z"/>
  <rect class="cls-12" x="261.06" y="152.84" width="133.75" height="125.39"/>
  <path class="cls-1" d="m261.69,130s15.19-24.64,16.9-48.21c.68-9.36.04-19.74,1.09-29.14,1.39-12.55,11.94-34.2,11.94-34.2l72.67.02s10.54,21.64,11.94,34.19c1.04,9.4.41,19.78,1.08,29.14,1.71,23.56,16.89,48.21,16.89,48.21l-132.5-.02Z"/>
  <g>
    <rect class="cls-12" x="278.6" y="161.12" width="98.67" height="130.53"/>
    <path class="cls-6" d="m374.95,163.44v125.89h-94.03v-125.89h94.03m4.64-4.64h-103.31v135.17h103.31v-135.17h0Z"/>
  </g>
  <g>
    <polygon class="cls-12" points="290.56 19.5 290.56 13.18 365.32 13.18 365.32 19.53 290.56 19.5"/>
    <path class="cls-12" d="m364.28,14.23v4.26l-72.67-.02v-4.23h72.67m2.09-2.09h-76.85v8.41h2.09s72.67.02,72.67.02h2.09s0-2.09,0-2.09v-6.34h0Z"/>
  </g>
  <polygon class="cls-4" points="370.19 10.66 287.96 10.66 285.68 10.66 282.69 4 373.19 4 370.19 10.66"/>
  <polygon class="cls-4" points="291.63 14.23 287.99 10.66 367.89 10.66 364.3 14.23 291.63 14.23"/>
  <g>
    <path class="cls-12" d="m261.84,154.26c-.72-1.07-3.32-4.75-7.44-8.87-5.11-5.11-11.76-7.89-13.2-8.46l-4.81-11.21h183.07l-4.81,11.22c-1.4.59-7.99,3.53-12.89,8.43-4.39,4.39-6.42,7.66-7.02,8.73l-132.92.15Z"/>
    <path class="cls-11" d="m418.46,126.39l-4.31,10.05c-1.84.8-8.12,3.73-12.85,8.46-4.04,4.04-6.12,7.18-6.93,8.54l-132.18.15c-.95-1.37-3.48-4.84-7.32-8.67-4.93-4.93-11.27-7.73-13.16-8.5l-4.3-10.03h181.05m2.02-1.33h-185.1l5.32,12.4s7.63,2.81,13.23,8.4c4.79,4.79,7.55,9.06,7.55,9.06l133.67-.15s1.83-3.67,7.09-8.93c5.36-5.36,12.92-8.39,12.92-8.39l5.32-12.4h0Z"/>
  </g>
  <g>
    <rect class="cls-6" x="275.39" y="198.43" width="105.1" height="7.45"/>
    <path class="cls-12" d="m379.57,199.36v5.6h-103.25v-5.6h103.25m1.85-1.85h-106.95v9.29h106.95v-9.29h0Z"/>
  </g>
  <path class="cls-11" d="m369.53,79.43c-.57-7.89-.04-16.63-.92-24.56-.82-7.42-5.43-18.04-8.12-23.73-.67.53-1.52.86-2.44.86-2.2,0-3.99-1.79-3.99-3.99,0-.28.03-.56.09-.83l-52.51-.02c.07.29.11.59.11.9,0,2.2-1.79,3.99-3.99,3.99-.92,0-1.75-.32-2.43-.85-2.69,5.71-7.26,16.26-8.08,23.64-.88,7.92-.34,16.67-.92,24.55-1.43,19.85-11.57,40.62-11.57,40.62l106.32.02s-10.13-20.77-11.57-40.62Z"/>
  <g>
    <path class="cls-8" d="m351.7,73.99c0-13.17-10.67-23.84-23.84-23.84s-23.84,10.67-23.84,23.84h-5.16l3.23,8.18h3.37l9.04,23.15h-4.99v5.97h37.08v-5.97h-5.32l8.7-23.04h3.81l3.23-8.22-5.32-.08Z"/>
    <path class="cls-12" d="m344.31,73.99c0,9.09-7.36,16.45-16.45,16.45s-16.46-7.37-16.46-16.45,7.37-16.45,16.46-16.45,16.45,7.37,16.45,16.45Z"/>
  </g>
  <polygon class="cls-1" points="282.69 4 285.68 10.66 287.96 10.66 291.6 14.23 364.28 14.23 367.86 10.66 370.19 10.66 373.19 4 282.69 4"/>
  <g>
    <polygon class="cls-6" points="242.02 135.46 238.42 127.05 417.45 127.05 413.85 135.46 242.02 135.46"/>
    <path class="cls-11" d="m414.42,129.05l-1.89,4.4h-169.19l-1.89-4.4h172.96m6.07-4h-185.1l5.32,12.4h174.46l5.32-12.4h0Z"/>
  </g>
  <g>
    <g>
      <path class="cls-6" d="m281.87,198.34v-1c0-9.59,7.19-17.39,16.04-17.39,6.88,0,12.77,4.73,15.04,11.34,2.27-6.62,8.15-11.34,15.04-11.34s12.77,4.73,15.04,11.34c2.27-6.61,8.15-11.34,15.04-11.34,8.84,0,16.04,7.8,16.04,17.39v1h-92.23Z"/>
      <path class="cls-12" d="m327.98,180.95c8.31,0,15.04,7.34,15.04,16.39,0-9.05,6.73-16.39,15.04-16.39s15.04,7.34,15.04,16.39h-90.23c0-9.06,6.73-16.39,15.04-16.39s15.04,7.34,15.04,16.39c0-9.05,6.73-16.39,15.04-16.39m0-2c-6.5,0-12.17,3.95-15.04,9.75-2.87-5.8-8.53-9.75-15.04-9.75-9.39,0-17.04,8.25-17.04,18.39v2h2s90.23,0,90.23,0h2s0-2,0-2c0-10.14-7.64-18.39-17.04-18.39-6.5,0-12.17,3.95-15.04,9.75-2.87-5.8-8.54-9.75-15.04-9.75h0Z"/>
    </g>
    <g>
      <path class="cls-3" d="m287.87,250.27v-52.09s.02-11.31,9.93-11.31,9.91,11.31,9.91,11.31v52.09h-19.84Z"/>
      <polygon class="cls-3" points="300 186.79 295.59 186.79 294.58 175.77 301 175.77 300 186.79"/>
    </g>
    <g>
      <path class="cls-3" d="m318.09,250.27v-52.09s.02-11.31,9.93-11.31,9.91,11.31,9.91,11.31v52.09h-19.84Z"/>
      <polygon class="cls-3" points="330.22 186.79 325.81 186.79 324.81 175.77 331.22 175.77 330.22 186.79"/>
    </g>
    <g>
      <path class="cls-3" d="m348.31,250.27v-52.09s.02-11.31,9.93-11.31,9.91,11.31,9.91,11.31v52.09h-19.84Z"/>
      <polygon class="cls-3" points="360.44 186.79 356.03 186.79 355.03 175.77 361.44 175.77 360.44 186.79"/>
    </g>
  </g>
  <g>
    <path class="cls-5" d="m259.74,265.52v29.92s27.47,5.93,67.95,5.93,67.9-5.93,67.9-5.93l.05-29.92s-27.33,5.53-68.42,5.53-67.48-5.53-67.48-5.53Z"/>
    <g>
      <g>
        <path class="cls-12" d="m309.17,295.08c-1-.14-1.65-.22-1.88-.23-.8-.12-1.97-.21-2.59-.27l-.37-.03c-.77-.06-2.36-.18-3.17-.2-.16-.01-.66-.03-1.16-.04l-.65-.02c-.15-.02-.31-.12-.29-.36l.04-.5c.01-.14.06-.29.31-.33.05,0,.12,0,.22,0h.67c1.99,0,2.49-.24,2.62-.38.29-.29.33-.87.41-1.84l.66-8.2c.05-.62.2-2.52-.08-3.13-.08-.17-.32-.27-.66-.28-.14,0-.27-.01-.41-.01-.21,0-.42,0-.65.02-.26,0-.52.02-.8.02h-.08l-.06-.05c-.26-.21-.25-.55-.22-.99v-.19s.2-.02.2-.02c1.89-.19,2.91-.39,4.3-1.1.08-.04.16-.08.24-.12.25-.13.49-.26.68-.26l.76.06-1.16,14.44c-.08,1.02-.08,1.63.15,1.96.29.47,2.09.76,2.68.85.21.03.36.06.41.08.21.05.28.15.26.33l-.04.5c-.02.23-.17.31-.3.31h-.03Z"/>
        <path class="cls-11" d="m306.44,276.8s.01,0,.02,0c.19.01.36.03.5.04l-1.14,14.21c-.09,1.08-.08,1.72.19,2.11.42.68,2.94.93,3.21,1.01.11.03.11,0,.1.09l-.04.5c0,.08-.03.1-.08.1,0,0,0,0-.01,0-.99-.13-1.66-.22-1.88-.23-.88-.13-2.21-.23-2.79-.28-.64-.05-2.47-.19-3.36-.21-.22-.02-1.17-.04-1.81-.06-.05,0-.08-.04-.07-.12l.04-.5c0-.08,0-.11.12-.13.03,0,.09,0,.18,0,.16,0,.39,0,.67,0,.96,0,2.43-.05,2.79-.46.33-.34.38-.94.47-1.97l.66-8.2c.06-.75.21-2.58-.1-3.24-.12-.26-.44-.4-.86-.41-.13-.01-.27-.01-.42-.01-.44,0-.93.03-1.45.03-.16-.13-.17-.38-.13-.79,2-.2,3.02-.42,4.38-1.12.25-.12.62-.35.82-.35m0-.45h0c-.25,0-.51.14-.79.28-.08.04-.15.08-.22.11-1.26.64-2.17.88-4.24,1.09l-.37.04-.03.37c-.03.37-.07.88.3,1.18l.12.1h.16c.28,0,.55,0,.81-.02.23,0,.44-.02.65-.02.13,0,.26,0,.38.01.32,0,.46.09.48.14.18.38.2,1.39.06,3.02l-.66,8.2c-.07.85-.12,1.47-.34,1.69-.07.07-.41.33-2.47.33h-.42s-.24,0-.24,0c-.11,0-.19,0-.23,0-.23.04-.49.16-.52.54l-.04.5c-.03.38.23.58.47.6l.68.02c.5.01.99.03,1.14.04.83.02,2.41.14,3.18.2h.18s.2.03.2.03c.62.05,1.79.15,2.56.26.21.02.79.09,1.88.23h.03s.04,0,.04,0c.24,0,.5-.16.53-.52l.04-.49c.04-.42-.29-.53-.39-.55-.09-.03-.25-.05-.47-.09-1.99-.32-2.43-.6-2.51-.74-.21-.29-.2-.91-.13-1.83l1.14-14.21.04-.45-.45-.03-.26-.02-.23-.02h-.02s-.04,0-.04,0h0Z"/>
      </g>
      <g>
        <path class="cls-12" d="m319.47,295.91c-3.46-.09-5.57-1.9-5.5-4.73.05-1.97,1.69-3.97,3.87-4.82-1.43-.96-3-2.2-2.94-4.55.07-2.65,1.96-4.29,4.95-4.29h.2c2.26.06,4.67,1.35,4.6,4.04-.06,2.22-2.12,3.57-3.07,4.08,2.21,1.42,3.64,2.9,3.58,5.28-.06,2.42-2.01,5-5.51,5h-.18Zm-.4-8.82c-1.43.7-2.27,2.08-2.31,3.8-.04,1.4.5,2.29.96,2.8.54.59,1.26.95,1.91.97h0c1.67,0,2.81-1.31,2.85-3.17.05-2.03-1.38-3.11-3.42-4.39Zm.64-8.33c-1.49,0-2.15,1.59-2.17,2.44-.04,1.55,1.47,2.64,2.8,3.6l.12.09c1.15-.92,1.64-1.87,1.67-3.24.04-1.37-.57-2.84-2.37-2.89l-.05-.23v.23Z"/>
        <path class="cls-11" d="m319.85,277.74c.06,0,.13,0,.19,0,2.36.06,4.44,1.39,4.38,3.81-.06,2.2-2.2,3.56-3.3,4.06,2.33,1.45,3.87,2.88,3.81,5.29-.06,2.18-1.84,4.78-5.28,4.78-.06,0-.12,0-.18,0-3-.08-5.35-1.55-5.28-4.5.05-2.11,1.97-4.09,4.15-4.76-1.61-1.07-3.28-2.25-3.22-4.61.07-2.66,2.04-4.08,4.72-4.08m.62,7.44c1.28-.97,1.86-1.98,1.89-3.51.04-1.42-.59-3.07-2.59-3.12-.02,0-.04,0-.06,0-1.6,0-2.37,1.65-2.4,2.66-.04,1.78,1.76,2.96,3.15,3.97m-.75,9.7c1.71,0,2.95-1.4,3-3.39.06-2.25-1.64-3.41-3.63-4.65-1.6.74-2.5,2.25-2.55,4.05-.07,2.58,1.76,3.96,3.09,4,.03,0,.06,0,.08,0m.13-17.59h0c-3.07,0-5.1,1.77-5.17,4.51-.06,2.27,1.37,3.57,2.7,4.51-2.07.96-3.58,2.92-3.63,4.86-.07,2.97,2.12,4.87,5.72,4.96h.19c3.64,0,5.67-2.69,5.73-5.22.06-2.36-1.28-3.86-3.37-5.26,1.45-.85,2.81-2.27,2.86-4.09.06-2.44-1.92-4.19-4.82-4.27-.07,0-.14,0-.2,0h0Zm.6,7.32c-1.28-.92-2.72-1.97-2.69-3.4.02-.78.61-2.23,1.95-2.23,2.1.05,2.21,2.05,2.2,2.66-.03,1.26-.44,2.11-1.46,2.96h0Zm-.73,9.82h-.07c-.59-.02-1.26-.36-1.75-.9-.43-.47-.94-1.31-.9-2.64.04-1.59.79-2.86,2.07-3.55,1.98,1.25,3.26,2.25,3.21,4.12-.04,1.74-1.09,2.96-2.55,2.96h0Z"/>
      </g>
      <g>
        <path class="cls-12" d="m333.79,295.95c-.56,0-.87-.08-1.05-.27-.17-.17-.18-.4-.17-.55.06-2.05,1.63-5.48,2.89-8.24.76-1.65,2.4-5.04,3.47-6.8l-3.91.1c-1.08.02-2.43.05-2.89.39-.49.37-.55.57-.67.97-.05.16-.1.34-.19.57-.15.39-.57.4-1.15.42h-.46s.75-4.6.75-4.6l10.63-.27.04,1.72-.04.06c-2.99,4.15-5.33,10.75-5.56,15.7-.03.64-.55.78-1.51.8h-.19Z"/>
        <path class="cls-11" d="m340.84,277.9l.04,1.42c-2.98,4.14-5.37,10.79-5.6,15.82-.02.39-.23.56-1.29.59-.07,0-.13,0-.19,0-.81,0-1.01-.17-.99-.58.06-2,1.64-5.46,2.88-8.16.87-1.89,2.67-5.57,3.68-7.13l-4.14.11c-1.22.03-2.67.04-3.21.44-.76.57-.62.85-.93,1.64-.1.28-.46.26-1.13.28l.67-4.16,10.22-.26m.44-.46h-.45s-10.22.27-10.22.27h-.37s-.06.38-.06.38l-.67,4.16-.09.54.54-.02h.18c.62-.02,1.16-.03,1.36-.57.09-.22.14-.41.19-.58.11-.38.15-.53.59-.85.4-.3,1.77-.33,2.76-.35h.19s3.31-.09,3.31-.09c-1.08,1.84-2.56,4.92-3.27,6.47-1.27,2.79-2.86,6.24-2.92,8.34,0,.11-.02.45.23.71.28.29.75.33,1.21.33.06,0,.13,0,.2,0,.67-.02,1.69-.04,1.73-1.02.23-4.9,2.55-11.45,5.52-15.58l.09-.12v-.15s-.04-1.42-.04-1.42v-.45h-.01Z"/>
      </g>
      <g>
        <path class="cls-12" d="m347.52,295.05c-.14,0-.29-.08-.31-.31l-.04-.5c0-.14.01-.3.26-.38.07-.02.22-.04.44-.08.66-.1,2.67-.4,2.96-.86.24-.33.19-.92.11-1.88l-.66-8.2c-.05-.62-.2-2.51-.58-3.08-.08-.12-.25-.18-.48-.18-.07,0-.14,0-.22.02-.33.03-.68.1-1.05.17-.25.05-.52.1-.79.14h-.08s-.07-.03-.07-.03c-.29-.16-.34-.5-.37-.94l-.02-.19.18-.05c2.01-.54,2.93-.94,4.08-1.78.07-.05.15-.1.22-.16.24-.18.46-.34.66-.36l.72-.06,1.16,14.43c.08,1.02.18,1.63.46,1.91.17.2.75.42,2.62.42h.31c.13,0,.22,0,.26,0,.3.03.31.22.32.28l.05.59-.08.16s-.1.1-.21.11c-1.01.03-1.67.05-1.89.07-.81.01-1.97.1-2.6.15l-.5.04c-.79.07-2.27.19-3.04.3-.16.01-.63.08-1.11.14l-.68.09h-.03Z"/>
        <path class="cls-11" d="m352.28,276.6l1.14,14.21c.08,1.08.19,1.72.52,2.05.39.45,1.93.48,2.78.48.12,0,.23,0,.31,0,.11,0,.2,0,.23,0,.11.02.11-.01.12.08l.04.5c0,.08-.02.11-.08.12-1,.03-1.67.05-1.89.07-.89.01-2.22.12-2.8.16-.64.05-2.47.2-3.35.33-.22.02-1.16.15-1.79.23,0,0,0,0,0,0-.05,0-.08-.03-.09-.1l-.04-.5c0-.08,0-.11.1-.15.27-.08,3.09-.36,3.51-1.04.28-.39.23-.99.15-2.02l-.66-8.2c-.06-.75-.21-2.58-.62-3.19-.12-.19-.36-.28-.66-.28-.08,0-.16,0-.25.02-.53.04-1.15.2-1.84.31-.17-.1-.22-.34-.26-.76,1.94-.52,2.91-.91,4.15-1.81.24-.16.58-.46.77-.48.19-.02.36-.03.5-.04m.41-.48l-.44.03-.29.02-.21.02c-.27.02-.52.21-.78.41-.07.05-.14.11-.2.15-1.15.84-2.01,1.22-4.02,1.75l-.36.1.03.38c.03.37.07.89.49,1.11l.14.07.15-.02c.28-.04.54-.1.8-.15.37-.07.72-.14,1.01-.16.09-.01.15-.02.21-.02.16,0,.26.04.29.08.23.35.42,1.35.54,2.97l.66,8.2c.07.88.12,1.47-.06,1.72-.11.16-.6.45-2.81.79-.23.03-.39.06-.45.08-.22.07-.45.23-.43.6l.04.51c.03.36.29.52.53.52h.06s.68-.09.68-.09c.48-.06.95-.13,1.09-.14.78-.11,2.26-.24,3.05-.3l.3-.03.2-.02c.62-.05,1.79-.14,2.57-.15.21-.02.8-.04,1.89-.07.17-.01.3-.08.39-.19.07-.08.14-.21.12-.42l-.04-.49c-.04-.4-.34-.47-.46-.48h-.01s-.04,0-.04,0c-.05,0-.15,0-.28,0h-.13s-.18,0-.18,0c-2,0-2.37-.25-2.44-.33-.25-.25-.34-.87-.42-1.79l-1.14-14.21-.04-.44h0Z"/>
      </g>
    </g>
  </g>
  <g>
    <g>
      <path class="cls-6" d="m41.73,416.39c1.43-3.95,1.91-4.66,2.63-4.66s1.2.6,2.63,4.3c1.79,4.54,20.57,53.93,27.86,72.11,4.3,10.64,7.77,12.56,10.28,13.27,1.79.6,3.59.72,4.78.72.72,0,1.2.12,1.2.72,0,.72-1.08.96-2.39.96-1.79,0-10.52,0-18.78-.24-2.27-.12-3.59-.12-3.59-.84,0-.48.36-.72.84-.84.72-.24,1.43-1.32.72-3.23l-11.12-29.42c-.24-.48-.48-.72-1.08-.72h-25.71c-.6,0-.96.36-1.2.96l-7.17,21.17c-1.08,2.99-1.67,5.86-1.67,8.01,0,2.39,2.51,3.47,4.54,3.47h1.2c.84,0,1.2.24,1.2.72,0,.72-.72.96-1.79.96-2.87,0-8.01-.36-9.33-.36s-7.89.36-13.51.36c-1.55,0-2.27-.24-2.27-.96,0-.48.48-.72,1.08-.72.84,0,2.51-.12,3.47-.24,5.5-.72,7.89-5.26,10.05-11.24l27.15-74.26Zm12.44,47.83c.6,0,.6-.36.48-.84l-11.36-32.29c-.6-1.79-1.2-1.79-1.79,0l-10.52,32.29c-.24.6,0,.84.36.84h22.84Z"/>
      <path class="cls-6" d="m104.51,448.08c0-18.66,0-22-.24-25.83-.24-4.07-1.2-5.98-5.14-6.82-.96-.24-2.99-.36-4.07-.36-.48,0-.96-.24-.96-.72,0-.72.6-.96,1.91-.96,5.38,0,12.92.36,13.51.36,1.32,0,10.4-.36,14.11-.36,7.53,0,15.55.72,21.88,5.26,2.99,2.15,8.25,8.01,8.25,16.26,0,8.85-3.71,17.7-14.47,27.62,9.81,12.56,17.94,23.2,24.87,30.61,6.46,6.82,11.6,8.13,14.59,8.61,2.27.36,3.95.36,4.66.36.6,0,1.08.36,1.08.72,0,.72-.72.96-2.87.96h-8.49c-6.7,0-9.69-.6-12.8-2.27-5.14-2.75-9.33-8.61-16.14-17.58-5.02-6.58-10.64-14.59-13.03-17.7-.48-.48-.84-.72-1.55-.72l-14.71-.24c-.6,0-.84.36-.84.96v2.87c0,11.48,0,20.93.6,25.95.36,3.47,1.08,6.1,4.66,6.58,1.67.24,4.3.48,5.38.48.72,0,.96.36.96.72,0,.6-.6.96-1.91.96-6.58,0-14.11-.36-14.71-.36-.12,0-7.65.36-11.24.36-1.32,0-1.91-.24-1.91-.96,0-.36.24-.72.96-.72,1.08,0,2.51-.24,3.59-.48,2.39-.48,2.99-3.11,3.47-6.58.6-5.02.6-14.47.6-25.95v-21.05Zm9.57,10.4c0,.6.24,1.08.84,1.44,1.79,1.08,7.29,1.91,12.56,1.91,2.87,0,6.22-.36,8.97-2.27,4.18-2.87,7.29-9.33,7.29-18.42,0-14.95-7.89-23.92-20.69-23.92-3.59,0-6.82.36-8.01.72-.6.24-.96.72-.96,1.44v39.1Z"/>
      <path class="cls-6" d="m193.79,448.08c0-18.66,0-22-.23-25.83-.23-4.07-1.14-5.98-4.88-6.82-.91-.24-2.84-.36-3.86-.36-.45,0-.91-.24-.91-.72,0-.72.57-.96,1.82-.96,5.11,0,11.81.36,12.5.36,1.02,0,7.61-.36,11.02-.36,1.25,0,1.82.24,1.82.96,0,.48-.45.72-.91.72-.8,0-1.48.12-2.84.36-3.07.6-3.98,2.63-4.2,6.82-.23,3.83-.23,7.17-.23,25.83v7.17h.45c1.93-2.27,22.49-24.28,26.58-28.94,3.18-3.47,6.13-6.58,6.13-8.61,0-1.43-.57-2.15-1.48-2.51-.57-.24-1.02-.48-1.02-.96,0-.6.57-.84,1.36-.84,2.27,0,5.79.36,8.52.36.57,0,8.07-.36,10.91-.36,1.25,0,1.7.24,1.7.84s-.23.84-1.14.84c-1.7,0-4.09.6-6.36,1.67-4.66,2.15-7.16,5.14-12.27,10.28-2.84,2.87-22.61,23.2-24.99,26.19,2.95,3.47,19.76,29.18,24.42,33.72,9.54,9.33,11.47,11.24,16.93,13.63,2.95,1.32,6.25,1.55,7.04,1.55s1.48.24,1.48.72c0,.6-.57.96-2.5.96h-5.79c-3.18,0-5.34,0-7.84-.24-6.02-.6-8.86-3.23-13.75-7.29-5.11-4.42-22.37-31.81-27.83-38.86h-.57v11.72c0,11.48,0,20.93.57,25.95.34,3.47,1.02,6.1,4.43,6.58,1.59.24,3.41.48,4.43.48.68,0,.91.36.91.72,0,.6-.57.96-1.82.96-5.57,0-12.16-.36-13.06-.36s-7.5.36-10.91.36c-1.25,0-1.82-.24-1.82-.96,0-.36.23-.72.91-.72,1.02,0,2.39-.24,3.41-.48,2.27-.48,2.84-3.11,3.29-6.58.57-5.02.57-14.47.57-25.95v-21.05Z"/>
      <path class="cls-6" d="m304.96,416.39c1.43-3.95,1.91-4.66,2.63-4.66s1.2.6,2.63,4.3c1.79,4.54,20.57,53.93,27.86,72.11,4.3,10.64,7.77,12.56,10.28,13.27,1.79.6,3.59.72,4.78.72.72,0,1.2.12,1.2.72,0,.72-1.08.96-2.39.96-1.79,0-10.52,0-18.77-.24-2.27-.12-3.59-.12-3.59-.84,0-.48.36-.72.84-.84.72-.24,1.43-1.32.72-3.23l-11.12-29.42c-.24-.48-.48-.72-1.08-.72h-25.71c-.6,0-.96.36-1.2.96l-7.17,21.17c-1.08,2.99-1.67,5.86-1.67,8.01,0,2.39,2.51,3.47,4.54,3.47h1.2c.84,0,1.2.24,1.2.72,0,.72-.72.96-1.79.96-2.87,0-8.01-.36-9.33-.36s-7.89.36-13.51.36c-1.55,0-2.27-.24-2.27-.96,0-.48.48-.72,1.08-.72.84,0,2.51-.12,3.47-.24,5.5-.72,7.89-5.26,10.04-11.24l27.15-74.26Zm12.44,47.83c.6,0,.6-.36.48-.84l-11.36-32.29c-.6-1.79-1.2-1.79-1.79,0l-10.52,32.29c-.24.6,0,.84.36.84h22.84Z"/>
      <path class="cls-6" d="m460.42,502.25c-1.67-.84-1.79-1.32-1.79-4.54,0-5.98.48-10.76.6-12.68.12-1.32.36-1.91.96-1.91.72,0,.84.36.84,1.32,0,1.08,0,2.75.36,4.42,1.79,8.85,9.68,12.2,17.7,12.2,11.48,0,17.1-8.25,17.1-15.9,0-8.25-3.47-13.04-13.75-21.53l-5.38-4.42c-12.68-10.4-15.55-17.82-15.55-25.95,0-12.79,9.57-21.52,24.75-21.52,4.66,0,8.13.48,11.12,1.2,2.27.48,3.23.6,4.18.6s1.2.24,1.2.84-.48,4.54-.48,12.68c0,1.91-.24,2.75-.84,2.75-.72,0-.84-.6-.96-1.56-.12-1.43-.84-4.66-1.55-5.98-.72-1.32-3.95-6.34-14.95-6.34-8.25,0-14.71,5.14-14.71,13.87,0,6.81,3.11,11.12,14.59,20.09l3.35,2.63c14.11,11.12,17.46,18.54,17.46,28.1,0,4.9-1.91,13.99-10.17,19.85-5.14,3.59-11.6,5.02-18.06,5.02-5.62,0-11.12-.84-16.02-3.23Z"/>
      <path class="cls-6" d="m550,416.39c1.44-3.95,1.91-4.66,2.63-4.66s1.2.6,2.63,4.3c1.79,4.54,20.57,53.93,27.86,72.11,4.31,10.64,7.77,12.56,10.28,13.27,1.79.6,3.59.72,4.78.72.72,0,1.2.12,1.2.72,0,.72-1.08.96-2.39.96-1.79,0-10.52,0-18.77-.24-2.27-.12-3.59-.12-3.59-.84,0-.48.36-.72.84-.84.72-.24,1.44-1.32.72-3.23l-11.12-29.42c-.24-.48-.48-.72-1.08-.72h-25.71c-.6,0-.96.36-1.2.96l-7.17,21.17c-1.08,2.99-1.67,5.86-1.67,8.01,0,2.39,2.51,3.47,4.54,3.47h1.2c.84,0,1.2.24,1.2.72,0,.72-.72.96-1.79.96-2.87,0-8.01-.36-9.33-.36s-7.89.36-13.51.36c-1.56,0-2.27-.24-2.27-.96,0-.48.48-.72,1.08-.72.84,0,2.51-.12,3.47-.24,5.5-.72,7.89-5.26,10.05-11.24l27.14-74.26Zm12.44,47.83c.6,0,.6-.36.48-.84l-11.36-32.29c-.6-1.79-1.2-1.79-1.79,0l-10.52,32.29c-.24.6,0,.84.36.84h22.84Z"/>
      <path class="cls-6" d="m607.71,502.25c-1.67-.84-1.79-1.32-1.79-4.54,0-5.98.48-10.76.6-12.68.12-1.32.36-1.91.96-1.91.72,0,.84.36.84,1.32,0,1.08,0,2.75.36,4.42,1.79,8.85,9.68,12.2,17.7,12.2,11.48,0,17.1-8.25,17.1-15.9,0-8.25-3.47-13.04-13.75-21.53l-5.38-4.42c-12.68-10.4-15.55-17.82-15.55-25.95,0-12.79,9.57-21.52,24.75-21.52,4.66,0,8.13.48,11.12,1.2,2.27.48,3.23.6,4.18.6s1.2.24,1.2.84-.48,4.54-.48,12.68c0,1.91-.24,2.75-.84,2.75-.72,0-.84-.6-.96-1.56-.12-1.43-.84-4.66-1.55-5.98-.72-1.32-3.95-6.34-14.95-6.34-8.25,0-14.71,5.14-14.71,13.87,0,6.81,3.11,11.12,14.59,20.09l3.35,2.63c14.11,11.12,17.46,18.54,17.46,28.1,0,4.9-1.91,13.99-10.16,19.85-5.14,3.59-11.6,5.02-18.06,5.02-5.62,0-11.12-.84-16.02-3.23Z"/>
      <path class="cls-6" d="m372.75,487.53c.21,9.81,1.29,12.91,4.2,13.87,2.05.6,4.41.72,5.38.72.54,0,.86.24.86.72,0,.72-.65.96-1.94.96-6.13,0-10.44-.36-11.41-.36s-5.49.36-10.33.36c-1.08,0-1.72-.12-1.72-.96,0-.48.32-.72.86-.72.86,0,2.8-.12,4.41-.72,2.69-.84,3.23-4.3,3.23-15.19l.11-68.52c0-4.66.32-5.98,1.18-5.98s2.69,2.63,3.77,3.83c1.61,2.03,17.65,21.29,34.22,41.02,10.65,12.67,22.38,27.26,25.83,31.21l-1.18-60.75c-.11-7.77-.86-10.4-4.2-11.36-1.94-.48-4.41-.6-5.27-.6-.75,0-.86-.36-.86-.84,0-.72.86-.84,2.15-.84,4.84,0,10.01.36,11.19.36s4.74-.36,9.15-.36c1.18,0,1.94.12,1.94.84,0,.48-.43.84-1.18.84-.54,0-1.29,0-2.58.36-3.55.84-3.98,3.47-3.98,10.64l-.22,70.08c0,7.89-.21,8.49-.97,8.49-.86,0-2.15-1.32-7.86-7.65-1.18-1.2-16.68-18.77-28.09-32.41-12.48-14.95-24.64-30.02-28.09-34.32l1.4,57.28Z"/>
    </g>
    <g>
      <path class="cls-6" d="m25.17,370.05c0-9.25,0-10.91-.12-12.81-.12-2.02-.59-2.96-2.55-3.38-.47-.12-1.48-.18-2.02-.18-.24,0-.47-.12-.47-.36,0-.35.3-.48.95-.48,2.67,0,6.29.18,6.82.18s4.09-.18,5.87-.18c.65,0,.95.12.95.48,0,.24-.24.36-.47.36-.41,0-.77.06-1.48.18-1.6.24-2.08,1.3-2.19,3.38-.12,1.9-.12,3.56-.12,12.81v8.3c0,8.54,1.9,12.21,4.45,14.65,2.91,2.73,5.57,3.26,8.95,3.26,3.62,0,7.17-1.72,9.31-4.27,2.73-3.38,3.44-8.42,3.44-14.53v-7.41c0-9.25,0-10.91-.12-12.81-.12-2.02-.59-2.96-2.55-3.38-.47-.12-1.48-.18-2.02-.18-.24,0-.47-.12-.47-.36,0-.35.3-.48.95-.48,2.67,0,5.93.18,6.29.18.41,0,3.2-.18,4.98-.18.65,0,.95.12.95.48,0,.24-.24.36-.47.36-.41,0-.77.06-1.48.18-1.6.36-2.08,1.3-2.19,3.38-.12,1.9-.12,3.56-.12,12.81v6.35c0,6.4-.71,13.52-5.46,17.73-4.27,3.8-8.72,4.39-12.22,4.39-2.01,0-8-.24-12.21-4.21-2.91-2.79-5.16-6.94-5.16-15.6v-8.66Z"/>
      <path class="cls-6" d="m92.17,389.62c.12,4.86.71,6.41,2.31,6.88,1.13.3,2.43.36,2.96.36.3,0,.47.12.47.36,0,.35-.36.47-1.07.47-3.38,0-5.75-.18-6.29-.18s-3.02.18-5.69.18c-.59,0-.95-.06-.95-.47,0-.24.18-.36.47-.36.47,0,1.54-.06,2.43-.36,1.48-.41,1.78-2.13,1.78-7.53l.06-33.98c0-2.31.18-2.97.65-2.97s1.48,1.31,2.08,1.9c.89,1.01,9.72,10.55,18.86,20.34,5.87,6.29,12.33,13.52,14.23,15.48l-.65-30.12c-.06-3.86-.47-5.16-2.31-5.63-1.07-.24-2.43-.3-2.91-.3-.42,0-.47-.18-.47-.41,0-.36.47-.42,1.19-.42,2.67,0,5.51.18,6.17.18s2.61-.18,5.04-.18c.65,0,1.07.06,1.07.42,0,.24-.24.41-.65.41-.3,0-.71,0-1.42.18-1.96.42-2.19,1.72-2.19,5.28l-.12,34.75c0,3.91-.12,4.21-.53,4.21-.48,0-1.19-.65-4.33-3.79-.65-.59-9.19-9.31-15.48-16.07-6.88-7.41-13.58-14.88-15.48-17.02l.77,28.4Z"/>
      <path class="cls-6" d="m164.44,380.49c0,5.69,0,10.38.3,12.87.18,1.72.53,3.02,2.31,3.26.83.12,2.14.24,2.67.24.36,0,.47.18.47.36,0,.3-.3.47-.95.47-3.26,0-7-.18-7.29-.18s-4.03.18-5.81.18c-.65,0-.95-.12-.95-.47,0-.18.12-.36.47-.36.53,0,1.25-.12,1.78-.24,1.19-.24,1.48-1.54,1.72-3.26.3-2.49.3-7.17.3-12.87v-10.44c0-9.25,0-10.91-.12-12.81-.12-2.02-.71-3.02-2.02-3.32-.65-.18-1.42-.24-1.84-.24-.24,0-.47-.12-.47-.36,0-.35.3-.48.95-.48,1.96,0,5.69.18,5.99.18s4.03-.18,5.81-.18c.65,0,.95.12.95.48,0,.24-.24.36-.47.36-.41,0-.77.06-1.48.18-1.6.3-2.08,1.3-2.19,3.38-.12,1.9-.12,3.56-.12,12.81v10.44Z"/>
      <path class="cls-6" d="m211.16,390.45c3.44-7.95,11.38-28.64,12.69-32.91.3-.89.53-1.72.53-2.25,0-.47-.18-1.07-.77-1.36-.71-.24-1.6-.24-2.25-.24-.36,0-.65-.06-.65-.36,0-.35.36-.48,1.3-.48,2.37,0,5.1.18,5.81.18.36,0,2.91-.18,4.62-.18.65,0,1.01.12,1.01.42s-.24.41-.71.41c-.42,0-1.72,0-2.85.71-.77.53-1.66,1.54-3.26,5.57-.65,1.66-3.62,8.78-6.64,16.07-3.62,8.66-6.29,15.06-7.65,17.97-1.66,3.56-1.9,4.5-2.49,4.5-.71,0-1.01-.83-2.13-3.68l-14.53-36.35c-1.3-3.32-2.19-3.97-4.27-4.56-.89-.24-1.9-.24-2.25-.24s-.47-.18-.47-.41c0-.36.59-.42,1.54-.42,2.85,0,6.23.18,6.94.18.59,0,3.26-.18,5.51-.18,1.07,0,1.6.12,1.6.42s-.18.41-.59.41c-.65,0-1.72.06-2.25.3-.65.3-.77.77-.77,1.19,0,.77.71,2.61,1.6,4.92l11.38,30.36Z"/>
      <path class="cls-6" d="m255.03,370.05c0-9.25,0-10.91-.12-12.81-.12-2.02-.59-2.96-2.55-3.38-.47-.12-1.48-.18-2.01-.18-.24,0-.47-.12-.47-.36,0-.35.3-.48.95-.48,1.36,0,2.96,0,4.27.06l2.43.12c.41,0,12.21,0,13.58-.06,1.13-.06,2.08-.18,2.55-.3.3-.06.53-.3.83-.3.18,0,.24.24.24.53,0,.42-.29,1.13-.47,2.79-.06.59-.18,3.2-.3,3.91-.06.3-.18.65-.42.65-.36,0-.47-.3-.47-.77,0-.42-.06-1.42-.36-2.14-.42-.95-1.01-1.66-4.21-2.02-1.01-.12-7.47-.18-8.12-.18-.24,0-.36.18-.36.59v16.37c0,.41.06.59.36.59.77,0,8.06,0,9.43-.12,1.42-.12,2.25-.24,2.79-.83.42-.47.65-.77.89-.77.18,0,.3.12.3.47s-.3,1.36-.47,3.32c-.12,1.19-.24,3.38-.24,3.8,0,.47,0,1.12-.41,1.12-.3,0-.42-.24-.42-.53,0-.59,0-1.19-.24-1.96-.24-.83-.77-1.84-3.08-2.08-1.6-.18-7.47-.3-8.48-.3-.3,0-.41.18-.41.41v5.22c0,2.01-.06,8.89,0,10.14.18,4.09,1.07,4.86,6.88,4.86,1.54,0,4.15,0,5.69-.65,1.54-.65,2.25-1.84,2.67-4.27.12-.65.24-.89.53-.89.36,0,.36.47.36.89,0,.47-.47,4.51-.77,5.75-.41,1.54-.89,1.54-3.2,1.54-4.45,0-7.71-.12-10.02-.18-2.31-.12-3.74-.18-4.62-.18-.12,0-1.13,0-2.37.06-1.19,0-2.55.12-3.44.12-.65,0-.95-.12-.95-.47,0-.18.12-.36.47-.36.53,0,1.25-.12,1.78-.24,1.19-.24,1.48-1.54,1.72-3.26.3-2.49.3-7.17.3-12.87v-10.44Z"/>
      <path class="cls-6" d="m303.94,370.05c0-9.25,0-10.91-.12-12.81-.12-2.02-.59-2.96-2.55-3.38-.47-.12-1.48-.18-2.02-.18-.24,0-.47-.12-.47-.36,0-.35.3-.48.95-.48,2.67,0,6.4.18,6.7.18.65,0,5.16-.18,7-.18,3.74,0,7.71.36,10.85,2.61,1.48,1.07,4.09,3.97,4.09,8.07,0,4.39-1.84,8.78-7.17,13.7,4.86,6.22,8.89,11.5,12.33,15.18,3.2,3.38,5.75,4.03,7.23,4.27,1.13.18,1.95.18,2.31.18.3,0,.53.18.53.36,0,.35-.36.47-1.42.47h-4.21c-3.32,0-4.8-.3-6.35-1.13-2.55-1.36-4.62-4.27-8-8.72-2.49-3.26-5.28-7.23-6.46-8.77-.24-.24-.42-.36-.77-.36l-7.29-.12c-.3,0-.41.17-.41.47v1.42c0,5.69,0,10.38.3,12.87.18,1.72.53,3.02,2.31,3.26.83.12,2.13.24,2.67.24.36,0,.48.18.48.36,0,.3-.3.47-.95.47-3.26,0-7-.18-7.29-.18-.06,0-3.8.18-5.58.18-.65,0-.95-.12-.95-.47,0-.18.12-.36.47-.36.53,0,1.25-.12,1.78-.24,1.19-.24,1.48-1.54,1.72-3.26.3-2.49.3-7.17.3-12.87v-10.44Zm4.74,5.16c0,.3.12.53.41.71.89.53,3.62.95,6.23.95,1.42,0,3.08-.18,4.45-1.13,2.08-1.42,3.62-4.63,3.62-9.13,0-7.41-3.91-11.86-10.26-11.86-1.78,0-3.38.18-3.97.35-.3.12-.47.36-.47.71v19.39Z"/>
      <path class="cls-6" d="m357.6,396.91c-.83-.42-.89-.65-.89-2.25,0-2.97.24-5.34.3-6.28.06-.65.18-.95.47-.95.36,0,.41.18.41.65,0,.53,0,1.36.18,2.19.89,4.39,4.8,6.05,8.78,6.05,5.69,0,8.48-4.09,8.48-7.89,0-4.09-1.72-6.46-6.82-10.67l-2.67-2.19c-6.29-5.16-7.71-8.83-7.71-12.87,0-6.35,4.74-10.67,12.27-10.67,2.31,0,4.03.24,5.52.59,1.13.24,1.6.3,2.07.3s.59.12.59.42-.24,2.25-.24,6.29c0,.95-.12,1.36-.42,1.36-.36,0-.41-.3-.47-.77-.06-.71-.41-2.31-.77-2.96-.36-.65-1.96-3.14-7.41-3.14-4.09,0-7.29,2.55-7.29,6.88,0,3.38,1.54,5.51,7.24,9.96l1.66,1.3c7,5.51,8.66,9.19,8.66,13.93,0,2.43-.95,6.94-5.04,9.84-2.55,1.78-5.75,2.49-8.95,2.49-2.79,0-5.51-.41-7.94-1.6Z"/>
      <path class="cls-6" d="m412.92,380.49c0,5.69,0,10.38.3,12.87.18,1.72.53,3.02,2.31,3.26.83.12,2.13.24,2.67.24.36,0,.48.18.48.36,0,.3-.3.47-.95.47-3.26,0-7-.18-7.29-.18s-4.03.18-5.81.18c-.65,0-.95-.12-.95-.47,0-.18.12-.36.47-.36.53,0,1.25-.12,1.78-.24,1.19-.24,1.48-1.54,1.72-3.26.3-2.49.3-7.17.3-12.87v-10.44c0-9.25,0-10.91-.12-12.81-.12-2.02-.71-3.02-2.02-3.32-.65-.18-1.42-.24-1.84-.24-.24,0-.48-.12-.48-.36,0-.35.3-.48.95-.48,1.96,0,5.69.18,5.99.18s4.03-.18,5.81-.18c.65,0,.95.12.95.48,0,.24-.24.36-.47.36-.41,0-.77.06-1.48.18-1.6.3-2.08,1.3-2.19,3.38-.12,1.9-.12,3.56-.12,12.81v10.44Z"/>
      <path class="cls-6" d="m459.39,380.49c0,5.69,0,10.38.3,12.87.18,1.72.53,3.02,2.31,3.26.83.12,2.13.24,2.67.24.36,0,.47.18.47.36,0,.3-.3.47-.95.47-3.26,0-7-.18-7.29-.18s-4.03.18-5.81.18c-.65,0-.95-.12-.95-.47,0-.18.12-.36.48-.36.53,0,1.24-.12,1.78-.24,1.19-.24,1.48-1.54,1.72-3.26.3-2.49.3-7.17.3-12.87v-25.08l-8.78.12c-3.67.06-5.1.47-6.05,1.9-.65,1.01-.83,1.42-1.01,1.84-.18.48-.36.59-.59.59-.18,0-.29-.18-.29-.53,0-.59,1.18-5.69,1.3-6.17.12-.35.36-1.13.59-1.13.41,0,1.01.59,2.61.71,1.72.18,3.97.3,4.69.3h22.23c1.9,0,3.26-.12,4.21-.3.89-.12,1.42-.3,1.66-.3.3,0,.3.36.3.71,0,1.78-.18,5.87-.18,6.52,0,.53-.18.77-.42.77-.29,0-.41-.18-.47-1.01l-.06-.65c-.18-1.78-1.6-3.14-7.29-3.26l-7.47-.12v25.08Z"/>
      <path class="cls-6" d="m507.06,382.33c0-3.2-.59-4.51-1.37-6.23-.42-.95-8.36-13.99-10.44-17.08-1.48-2.19-2.96-3.68-4.03-4.39-.89-.59-2.02-.95-2.55-.95-.3,0-.59-.12-.59-.41,0-.24.24-.42.77-.42,1.13,0,5.57.18,5.87.18.41,0,2.67-.18,4.98-.18.65,0,.77.18.77.42s-.36.3-.89.53c-.47.24-.77.59-.77,1.07,0,.71.3,1.42.77,2.31.95,1.72,9.84,17.02,10.91,18.74,1.13-2.49,8.66-15.48,9.84-17.43.77-1.24,1.01-2.25,1.01-3.02,0-.83-.24-1.48-.95-1.66-.53-.18-.89-.3-.89-.59,0-.24.35-.36.95-.36,1.54,0,3.44.18,3.91.18.36,0,4.63-.18,5.75-.18.41,0,.77.12.77.36,0,.3-.3.47-.77.47-.65,0-1.78.24-2.73.83-1.19.71-1.84,1.42-3.14,3.02-1.96,2.37-10.26,16.3-11.32,18.86-.89,2.13-.89,3.97-.89,5.93v5.1c0,.95,0,3.44.18,5.93.12,1.72.65,3.02,2.43,3.26.83.12,2.13.24,2.67.24.35,0,.47.18.47.36,0,.3-.3.47-.95.47-3.26,0-7-.18-7.29-.18s-4.03.18-5.81.18c-.65,0-.95-.12-.95-.47,0-.18.12-.36.47-.36.53,0,1.25-.12,1.78-.24,1.19-.24,1.72-1.54,1.84-3.26.18-2.49.18-4.98.18-5.93v-5.1Z"/>
      <path class="cls-6" d="m584.61,352.02c13.34,0,23.3,8.42,23.3,22.24s-9.37,24.25-23.66,24.25c-16.25,0-23.01-12.63-23.01-23.3,0-9.61,7-23.19,23.36-23.19Zm1.25,44.24c5.34,0,16.37-3.08,16.37-20.34,0-14.23-8.66-21.88-18.03-21.88-9.9,0-17.31,6.52-17.31,19.51,0,13.82,8.3,22.71,18.97,22.71Z"/>
      <path class="cls-6" d="m635.01,370.05c0-9.25,0-10.91-.12-12.81-.12-2.02-.59-2.96-2.55-3.38-.47-.12-1.48-.18-2.02-.18-.24,0-.48-.12-.48-.36,0-.35.3-.48.95-.48,1.37,0,2.96,0,4.27.06l2.43.12c1.18.06,13.22,0,14.59-.06,1.13-.06,2.08-.06,2.61-.24.36-.12.59-.36.83-.36s.36.24.36.53c0,.42-.3,1.13-.47,2.79-.06.59-.18,3.2-.3,3.91-.06.3-.18.65-.47.65s-.41-.3-.41-.71c0-.48-.18-1.48-.53-2.25-.36-.77-1.72-1.84-4.03-1.9l-9.13-.18c-.35,0-.53.18-.53.65v16.36c0,.36.06.53.41.53l7.59-.06c1.01,0,1.84,0,2.67-.06,1.43-.12,2.2-.3,2.73-1.07.24-.3.42-.59.65-.59s.3.18.3.47c0,.35-.3,1.36-.48,3.32-.12,1.19-.24,3.56-.24,3.97,0,.54,0,1.13-.41,1.13-.3,0-.42-.23-.42-.53-.06-.6-.12-1.42-.36-2.14-.3-.83-1.25-1.9-3.08-2.14-1.48-.18-7.94-.18-8.95-.18-.3,0-.41.12-.41.53v5.04c0,5.69,0,10.38.3,12.87.18,1.72.53,3.02,2.31,3.26.83.12,2.13.24,2.67.24.36,0,.47.18.47.36,0,.3-.29.47-.95.47-3.26,0-7-.18-7.29-.18s-4.03.18-5.81.18c-.65,0-.95-.12-.95-.47,0-.18.12-.36.47-.36.53,0,1.25-.12,1.78-.24,1.18-.24,1.48-1.54,1.72-3.26.3-2.49.3-7.17.3-12.87v-10.44Z"/>
    </g>
  </g>
  <path class="cls-6" d="m654.23,501.71c0-2.5,2.04-4.53,4.56-4.53s4.53,2.04,4.53,4.53-2.03,4.56-4.53,4.56-4.56-2.04-4.56-4.56Zm8.37,0c0-2.21-1.61-3.93-3.81-3.93s-3.84,1.73-3.84,3.93,1.62,3.96,3.84,3.96,3.81-1.73,3.81-3.96Zm-1.55,2.54h-.74l-1.45-2.34h-1.14v2.34h-.62v-5.07h2.22c1.34,0,1.8.5,1.8,1.34,0,1-.7,1.37-1.59,1.39l1.54,2.34Zm-2.39-2.83c.72,0,1.78.12,1.78-.91,0-.79-.65-.89-1.27-.89h-1.45v1.8h.95Z"/>
</svg>